<?xml version="1.0" encoding="UTF-8"?> <svg xmlns="http://www.w3.org/2000/svg" width="102" height="35" viewBox="0 0 102 35" fill="none"><g clip-path="url(#clip0_165_1592)"><path d="M34.3324 19.0172C34.3324 16.0985 32.5272 13.5341 29.794 12.5555C29.9121 11.9313 29.9628 11.3239 29.9628 10.6828C29.9628 5.25033 25.5425 0.830078 20.1269 0.830078C16.9382 0.830078 14.0026 2.34848 12.1468 4.9129C11.2358 4.20431 10.1223 3.81627 8.95816 3.81627C6.07319 3.81627 3.7281 6.16137 3.7281 9.04634C3.7281 9.68744 3.84619 10.2948 4.04865 10.8684C1.33239 11.8469 -0.523438 14.4451 -0.523438 17.347C-0.523438 20.2825 1.29865 22.847 4.03178 23.8255C3.91368 24.4328 3.86307 25.0571 3.86307 25.6982C3.86307 31.1138 8.26644 35.5172 13.6821 35.5172C16.8707 35.5172 19.8063 33.9819 21.6453 31.4175C22.5563 32.143 23.6698 32.531 24.8339 32.531C27.7189 32.531 30.064 30.1859 30.064 27.3009C30.064 26.6598 29.9459 26.0525 29.7434 25.4789C32.4766 24.5172 34.3324 21.919 34.3324 19.0172Z" fill="white"></path><path d="M13.1917 15.7773L20.8175 19.2528L28.5107 12.5043C28.6288 11.9476 28.6794 11.4077 28.6794 10.8172C28.6794 6.07639 24.8159 2.21289 20.0751 2.21289C17.2408 2.21289 14.592 3.6132 12.9892 5.95829L11.707 12.5887L13.1917 15.7773Z" fill="#FED10A"></path><path d="M5.29762 23.8415C5.17952 24.3983 5.12891 24.9719 5.12891 25.5624C5.12891 30.32 9.00927 34.1835 13.7501 34.1835C16.6013 34.1835 19.2669 32.7664 20.8697 30.4213L22.135 23.8078L20.4479 20.5685L12.7884 17.0762L5.29762 23.8415Z" fill="#24BBB1"></path><path d="M5.26175 10.6483L10.4918 11.8799L11.6391 5.94121C10.9305 5.40134 10.0532 5.09766 9.14212 5.09766C6.88138 5.09766 5.02556 6.93661 5.02556 9.21422C5.00869 9.72035 5.09304 10.2096 5.26175 10.6483Z" fill="#EF5098"></path><path d="M4.80847 11.8975C2.48025 12.6567 0.84375 14.9005 0.84375 17.3637C0.84375 19.7594 2.32841 21.9021 4.55541 22.7456L11.8775 16.1321L10.5447 13.264L4.80847 11.8975Z" fill="#17A8E0"></path><path d="M22.2188 30.4049C22.9442 30.9448 23.8046 31.2653 24.6988 31.2653C26.9595 31.2653 28.8154 29.4264 28.8154 27.1488C28.8154 26.6426 28.731 26.1702 28.5623 25.7147L23.3491 24.5L22.2188 30.4049Z" fill="#93C83E"></path><path d="M23.2801 23.1162L29.0163 24.449C31.3614 23.6898 32.981 21.4459 32.981 18.9659C32.981 16.5871 31.4964 14.4275 29.2694 13.584L21.7617 20.1637L23.2801 23.1162Z" fill="#0779A1"></path><path d="M48.2004 25.1922L48.8921 25.1248L48.9427 26.5419C47.1206 26.795 45.5516 26.93 44.2525 26.93C42.5317 26.93 41.3001 26.4238 40.5915 25.4284C39.8829 24.433 39.5117 22.864 39.5117 20.7551C39.5117 16.5373 41.182 14.4453 44.5393 14.4453C46.159 14.4453 47.3737 14.9008 48.1666 15.795C48.9596 16.6892 49.3645 18.1232 49.3645 20.0465L49.2633 21.4131H41.3338C41.3338 22.7459 41.57 23.7245 42.0593 24.3656C42.5485 25.0067 43.3752 25.3272 44.5562 25.3272C45.7709 25.3441 46.9688 25.2935 48.2004 25.1922ZM47.5593 19.9959C47.5593 18.5281 47.3231 17.4821 46.8507 16.8748C46.3783 16.2674 45.6191 15.9637 44.5562 15.9637C43.4933 15.9637 42.6835 16.2843 42.1605 16.9254C41.6375 17.5665 41.3507 18.5956 41.3338 19.9959H47.5593Z" fill="black"></path><path d="M51.8594 26.6932V9.46777H53.6477V26.6932H51.8594Z" fill="black"></path><path d="M65.0032 18.3257V24.2306C65.0032 24.838 66.4879 24.956 66.4879 24.956L66.4035 26.5419C65.1382 26.5419 64.0922 26.6432 63.4511 26.0358C62.0001 26.6769 60.583 26.93 59.132 26.93C58.0354 26.93 57.1919 26.6263 56.6182 25.9852C56.0446 25.361 55.7578 24.4668 55.7578 23.2858C55.7578 22.1217 56.0446 21.2613 56.6351 20.7045C57.2256 20.1478 58.1535 19.8103 59.4189 19.6922L63.1811 19.338V18.3257C63.1811 17.5159 63.0124 16.9254 62.6581 16.5711C62.3038 16.2168 61.8146 16.0481 61.2072 16.0481H56.4833V14.4453H61.0891C62.4388 14.4453 63.4342 14.749 64.0416 15.3901C64.6995 16.0143 65.0032 16.9929 65.0032 18.3257ZM57.6136 23.2014C57.6136 24.6692 58.221 25.4116 59.4357 25.4116C60.5324 25.4116 61.5952 25.2429 62.6412 24.8717L63.1811 24.6861V20.7214L59.6382 21.0588C58.9127 21.1094 58.4066 21.3287 58.0692 21.683C57.7317 22.0373 57.6136 22.5435 57.6136 23.2014Z" fill="black"></path><path d="M72.0401 16.0481C70.3024 16.0481 69.4251 16.6554 69.4251 17.8702C69.4251 18.4269 69.6275 18.8318 70.0324 19.068C70.4373 19.3042 71.3484 19.5404 72.7656 19.7935C74.1996 20.0465 75.195 20.384 75.7855 20.8395C76.376 21.2781 76.6628 22.1217 76.6628 23.3533C76.6628 24.5849 76.2579 25.4959 75.4649 26.0695C74.672 26.6432 73.5248 26.93 71.9895 26.93C71.011 26.93 67.6873 26.5588 67.6873 26.5588L67.7886 24.9898C69.695 25.1585 71.0784 25.3103 72.0064 25.3103C72.9343 25.3103 73.6429 25.1585 74.1321 24.8717C74.6214 24.5849 74.8744 24.0787 74.8744 23.387C74.8744 22.6953 74.672 22.2229 74.2502 21.9699C73.8453 21.7168 72.9174 21.4806 71.5171 21.2613C70.0999 21.0419 69.1045 20.7214 68.514 20.2827C67.9235 19.861 67.6367 19.0511 67.6367 17.887C67.6367 16.7229 68.0416 15.8625 68.8683 15.2889C69.695 14.7321 70.7241 14.4453 71.9389 14.4453C72.9174 14.4453 76.2916 14.6984 76.2916 14.6984V16.2674C74.5033 16.183 73.0524 16.0481 72.0401 16.0481Z" fill="black"></path><path d="M85.3326 16.2665H81.5197V22.0027C81.5197 23.3692 81.6209 24.2803 81.8065 24.7189C82.0089 25.1407 82.4813 25.36 83.2405 25.36L85.3832 25.2082L85.5013 26.6928C84.4215 26.8616 83.6117 26.9628 83.0549 26.9628C81.8065 26.9628 80.9461 26.6591 80.4568 26.0517C79.9675 25.4444 79.7313 24.2803 79.7313 22.5763V16.2665H78.0273V14.6974H79.7313V11.0195H81.5197V14.6806H85.3326V16.2665Z" fill="black"></path><path d="M87.8477 11.9814V9.90625H89.636V11.9983L87.8477 11.9814ZM87.8477 26.6931V14.6977H89.636V26.6931H87.8477Z" fill="black"></path><path d="M97.4456 14.4453C97.9686 14.4453 98.8796 14.5465 100.145 14.7321L100.719 14.7996L100.651 16.2505C99.3689 16.0987 98.4241 16.0312 97.8167 16.0312C96.467 16.0312 95.5391 16.3518 95.0499 17.0097C94.5606 17.6508 94.3075 18.8656 94.3075 20.6202C94.3075 22.3748 94.5269 23.5895 94.9824 24.2812C95.4379 24.9729 96.3827 25.3103 97.8167 25.3103L100.651 25.091L100.719 26.5757C99.2339 26.795 98.1204 26.9131 97.3781 26.9131C95.5054 26.9131 94.2063 26.4238 93.4977 25.4622C92.7891 24.5005 92.418 22.8809 92.418 20.6033C92.418 18.3257 92.806 16.7229 93.5652 15.795C94.3582 14.9177 95.6404 14.4453 97.4456 14.4453Z" fill="black"></path></g><defs><clipPath id="clip0_165_1592"><rect width="102" height="35" fill="white"></rect></clipPath></defs></svg> 