<?xml version="1.0" encoding="UTF-8"?> <svg xmlns="http://www.w3.org/2000/svg" width="142" height="26" viewBox="0 0 142 26" fill="none"><g clip-path="url(#clip0_165_1616)"><path opacity="0.98" d="M13.1144 0C5.8739 0 0 5.79638 0 12.9414C0 20.0864 5.8739 25.8827 13.1144 25.8827C20.3549 25.8827 26.2288 20.0864 26.2288 12.9414C26.2288 5.79638 20.3549 0 13.1144 0ZM12.4311 23.3152V15.1977H7.85816L14.4285 2.56753V10.6851H18.8306L12.4311 23.3152Z" fill="#009688"></path><path d="M36.7031 24.0358V1.68669H50.3638V4.36341H39.8732V11.1036H49.1873V13.7481H39.8732V24.0358H36.7031ZM58.1526 21.875L58.619 21.8734C59.1481 21.8697 59.6244 21.8595 60.0481 21.8428C60.6145 21.7998 61.083 21.7353 61.4533 21.6493V16.6506C61.2355 16.5431 60.876 16.4571 60.3749 16.3926C59.8955 16.3066 59.3073 16.2636 58.6101 16.2636C58.1526 16.2636 57.6623 16.2958 57.1395 16.3603C56.6383 16.4248 56.1699 16.5646 55.7342 16.7796C55.3202 16.9731 54.9716 17.2526 54.6884 17.6181C54.4051 17.9621 54.2635 18.4243 54.2635 19.0048C54.2635 20.0798 54.6121 20.8323 55.3093 21.2623C56.0065 21.6708 56.9543 21.875 58.1526 21.875ZM57.8911 6.84664C59.035 6.84664 60.0064 6.98837 60.8056 7.27181L60.9631 7.33039C61.7562 7.61132 62.3974 8.01399 62.8868 8.53839L62.9893 8.65263C63.5122 9.21163 63.8826 9.88887 64.1005 10.6844C64.3184 11.4584 64.4273 12.3184 64.4273 13.2643V23.7455L63.8391 23.8461C63.6822 23.8736 63.5079 23.9046 63.3162 23.939L62.9608 23.9874C62.5931 24.0358 62.1887 24.0841 61.7475 24.1325C61.1592 24.197 60.5165 24.2508 59.8193 24.2938C59.1439 24.3583 58.4685 24.3905 57.7931 24.3905C56.8344 24.3905 55.952 24.2938 55.1459 24.1003C54.3398 23.9068 53.6426 23.6058 53.0543 23.1973C52.4661 22.7673 52.0085 22.2083 51.6817 21.5203C51.3549 20.8323 51.1915 20.0045 51.1915 19.037C51.1915 18.1126 51.3767 17.3171 51.7471 16.6506C52.1393 15.9841 52.6622 15.4466 53.3158 15.0381C53.9694 14.6296 54.732 14.3286 55.6034 14.1351C56.4749 13.9416 57.39 13.8448 58.3486 13.8448C58.6537 13.8448 58.9696 13.8663 59.2964 13.9093C59.6232 13.9308 59.9282 13.9738 60.2115 14.0383L60.502 14.0813C60.6399 14.1028 60.767 14.1243 60.8832 14.1458L61.3277 14.2354C61.3788 14.2464 61.4207 14.256 61.4533 14.2641V13.4256C61.4533 12.9311 61.3989 12.4474 61.2899 11.9744C61.181 11.4799 60.9849 11.0499 60.7017 10.6844C60.4184 10.2974 60.0263 9.99637 59.5252 9.78137C59.0458 9.54487 58.414 9.42662 57.6297 9.42662C56.711 9.42662 55.893 9.48985 55.1756 9.61632L54.6764 9.70832C54.0868 9.82152 53.6333 9.94262 53.3158 10.0716L52.9563 7.58839C53.3485 7.41639 54.0021 7.25514 54.9171 7.10464C55.7407 6.94984 56.626 6.8647 57.5731 6.84922L57.8911 6.84664ZM73.3977 21.875C74.6396 21.875 75.5547 21.7138 76.1429 21.3913C76.753 21.0688 77.058 20.5528 77.058 19.8433C77.058 19.1123 76.7639 18.5318 76.1756 18.1018C75.5873 17.6718 74.6178 17.1881 73.267 16.6506C72.6134 16.3926 71.9816 16.1346 71.3715 15.8766C70.7832 15.5971 70.2712 15.2746 69.8355 14.9091C69.3997 14.5436 69.0512 14.1028 68.7897 13.5868C68.5283 13.0708 68.3975 12.4366 68.3975 11.6841C68.3975 10.2006 68.9531 9.02888 70.0643 8.16888C71.1754 7.28739 72.6896 6.84664 74.6069 6.84664C75.0862 6.84664 75.5656 6.87889 76.0449 6.94339C76.5242 6.98639 76.9708 7.05089 77.3848 7.13689C77.7396 7.19218 78.0544 7.25536 78.3292 7.32644L78.6941 7.42512C78.9106 7.48559 79.0842 7.54001 79.2149 7.58839L78.6594 10.1684C78.3326 9.99637 77.8205 9.82437 77.1233 9.65237C76.4262 9.45887 75.5873 9.36212 74.6069 9.36212C73.7572 9.36212 73.0164 9.53412 72.3846 9.87812C71.7528 10.2006 71.4369 10.7166 71.4369 11.4261C71.4369 11.7916 71.5022 12.1141 71.633 12.3936C71.7855 12.6731 72.0033 12.9311 72.2866 13.1676C72.5916 13.3826 72.962 13.5868 73.3977 13.7803C73.8335 13.9738 74.3564 14.1781 74.9664 14.3931C75.7725 14.6941 76.4915 14.9951 77.1233 15.2961C77.7552 15.5756 78.289 15.9088 78.7247 16.2958C79.1823 16.6828 79.5309 17.1558 79.7705 17.7148C80.0102 18.2523 80.13 18.9188 80.13 19.7143C80.13 21.2623 79.5417 22.434 78.3652 23.2295C77.2105 24.025 75.5547 24.4228 73.3977 24.4228C71.9696 24.4228 70.8364 24.3063 69.9981 24.0735L69.3136 23.8777C68.7619 23.7162 68.3693 23.5862 68.1361 23.4875L68.6917 20.9075L69.1093 21.058C69.4336 21.1727 69.85 21.316 70.3584 21.488C71.0761 21.7309 72.0157 21.8594 73.1773 21.8737L73.3977 21.875ZM86.8398 7.26589H93.278V9.78137H86.8398V17.5213C86.8398 18.3598 86.9052 19.0585 87.0359 19.6175C87.1666 20.155 87.3627 20.585 87.6242 20.9075C87.8856 21.2085 88.2124 21.4235 88.6046 21.5525C88.9968 21.6815 89.4543 21.746 89.9772 21.746C90.8923 21.746 91.6221 21.6493 92.1668 21.4558L93.3433 21.0043L93.9316 23.4875C93.6266 23.638 93.0928 23.8208 92.3302 24.0358C91.5677 24.2723 90.6962 24.3905 89.7157 24.3905C88.561 24.3905 87.6024 24.2508 86.8398 23.9713C86.099 23.6703 85.4999 23.2295 85.0424 22.649C84.5848 22.0685 84.258 21.359 84.0619 20.5205C83.8876 19.6605 83.8005 18.6716 83.8005 17.5536V2.58968L86.8398 2.07368V7.26589ZM112.473 24.0358C112.103 23.0683 111.754 22.1223 111.427 21.1978C111.1 20.2518 110.763 19.295 110.414 18.3276H100.152L98.0933 24.0358H94.7925L95.5262 22.0534C95.9464 20.9231 96.3529 19.8385 96.7459 18.7996L97.6985 16.2894C98.3016 14.707 98.8907 13.1934 99.4659 11.7486C100.124 10.1433 100.774 8.60591 101.415 7.13649L101.656 6.58865C102.375 4.93316 103.126 3.29917 103.911 1.68669H106.819C107.473 3.03042 108.104 4.38909 108.712 5.76269L109.074 6.58865C109.793 8.22263 110.512 9.94262 111.231 11.7486C111.898 13.374 112.573 15.0865 113.258 16.886L113.984 18.7996C114.601 20.4322 115.252 22.1776 115.937 24.0358H112.473ZM109.499 15.7476C108.802 13.8771 108.105 12.0711 107.407 10.3296C106.732 8.56663 106.024 6.87889 105.283 5.26641C104.521 6.87889 103.791 8.56663 103.093 10.3296C102.418 12.0711 101.743 13.8771 101.067 15.7476H109.499ZM124.993 1.46094C128.091 1.46094 130.485 2.03167 132.178 3.17312L132.314 3.26692C134.035 4.44941 134.896 6.22315 134.896 8.58813C134.896 9.87812 134.656 10.9854 134.177 11.9099C133.719 12.8128 133.044 13.5546 132.15 14.1351C131.279 14.6941 130.211 15.1026 128.948 15.3606C127.684 15.6186 126.257 15.7476 124.666 15.7476H122.15V24.0358H118.98V2.00918C119.873 1.79418 120.865 1.65444 121.954 1.58994C122.954 1.51254 123.875 1.46997 124.716 1.46223L124.993 1.46094ZM125.255 4.20217L124.639 4.20458C123.585 4.21315 122.756 4.2446 122.15 4.29891V13.0708H124.536C125.625 13.0708 126.606 13.0063 127.477 12.8773C128.349 12.7268 129.078 12.4903 129.667 12.1679C130.277 11.8239 130.745 11.3616 131.072 10.7811C131.399 10.2006 131.562 9.45887 131.562 8.55588C131.562 7.74964 131.409 7.07567 131.103 6.53397L131.039 6.4274C130.712 5.8684 130.255 5.42766 129.667 5.10516C129.1 4.76116 128.436 4.52466 127.673 4.39566C126.911 4.26667 126.104 4.20217 125.255 4.20217ZM138.831 1.68669H142.001V24.0358H138.831V1.68669Z" fill="#009688"></path></g><defs><clipPath id="clip0_165_1616"><rect width="142" height="26" fill="white"></rect></clipPath></defs></svg> 