<?xml version="1.0" encoding="UTF-8"?> <svg xmlns="http://www.w3.org/2000/svg" id="Warstwa_1" data-name="Warstwa 1" viewBox="0 0 100 100"><defs><style> .cls-1 { fill: none; stroke: #fff; stroke-linecap: round; stroke-linejoin: round; stroke-width: 2px; } </style></defs><path class="cls-1" d="M57.6,33.32c0,4.19-3.41,7.61-7.61,7.61s-7.61-3.4-7.61-7.61,3.41-7.61,7.61-7.61,7.61,3.4,7.61,7.61ZM40.05,83.63c-5.56,0-7.47-4.54-7.47-10.09v-14.78c0-5.55,4.54-10.09,10.1-10.09h14.63c5.56,0,10.1,4.54,10.1,10.09v14.78c0,5.55-1.91,10.09-7.47,10.09M60.04,61.81v33.36M39.96,61.81v33.36M31.67,33.32c0,4.19-3.41,7.61-7.61,7.61s-7.61-3.4-7.61-7.61,3.41-7.61,7.61-7.61,7.61,3.4,7.61,7.61ZM14.11,83.63c-5.56,0-7.47-4.54-7.47-10.09v-14.78c0-5.55,4.54-10.09,10.1-10.09h10.86M14.02,61.81v33.36M68.32,33.32c0,4.19,3.41,7.61,7.61,7.61s7.61-3.4,7.61-7.61-3.41-7.61-7.61-7.61-7.61,3.4-7.61,7.61ZM85.89,83.63c5.55,0,7.47-4.54,7.47-10.09v-14.78c0-5.55-4.54-10.09-10.1-10.09h-10.86M85.96,61.81v33.36M70.57,13c0,4.19-3.41,7.61-7.61,7.61s-7.61-3.4-7.61-7.61,3.41-7.61,7.61-7.61,7.61,3.4,7.61,7.61ZM44.63,13c0,4.19-3.41,7.61-7.61,7.61s-7.61-3.4-7.61-7.61,3.42-7.61,7.61-7.61,7.61,3.4,7.61,7.61Z"></path></svg> 