<?xml version="1.0" encoding="UTF-8"?> <svg xmlns="http://www.w3.org/2000/svg" width="50" height="50" viewBox="0 0 50 50" fill="none"><g clip-path="url(#clip0_165_1611)"><path fill-rule="evenodd" clip-rule="evenodd" d="M29.4383 0.0977488C29.0781 0.0977488 28.7414 0.174522 28.4343 0.274918C29.0928 0.71784 29.4531 1.29364 29.6361 1.95212C29.648 2.0407 29.6745 2.10566 29.6863 2.1972C29.6982 2.28874 29.7159 2.35075 29.7159 2.43342C29.769 3.57026 29.4206 3.71199 29.1726 4.38228C28.7975 5.24746 28.9009 6.17759 29.3497 6.9217C29.3908 7.02132 29.4423 7.11633 29.5033 7.20517C29.0131 3.93936 31.7385 3.44624 32.2405 2.42752C32.2789 1.53577 31.5437 0.942254 30.962 0.52886C30.4068 0.192239 29.8989 0.0859375 29.4383 0.0859375V0.0977488ZM33.5427 0.835952C33.4896 1.13123 33.5309 1.05446 33.5132 1.21096L33.4837 1.54758L33.3951 1.85763C33.3655 1.96097 33.3301 2.06432 33.2917 2.16767L33.15 2.46295C33.1116 2.5161 33.085 2.5663 33.0466 2.6165L32.9699 2.73461L32.775 2.99151C32.6982 3.06828 32.6332 3.15982 32.5388 3.22773C32.4443 3.29565 32.3852 3.38128 32.2937 3.44624C32.022 3.65294 31.712 3.80648 31.4285 4.00137C31.3399 4.06633 31.2513 4.11948 31.1716 4.19625C31.0842 4.25809 31.0022 4.32723 30.9265 4.40295C30.8379 4.47972 30.773 4.5565 30.6903 4.64804C30.6076 4.73957 30.5486 4.81635 30.4954 4.90493L30.3182 5.17659L30.1765 5.47187L30.0732 5.76715L29.9846 6.09196C29.9728 6.14511 29.9728 6.21007 29.955 6.26027C29.9373 6.31047 29.9432 6.36362 29.9255 6.41382L29.9137 6.73863C29.9137 6.8154 29.9137 6.89217 29.9255 6.97485C29.9255 7.0782 29.9373 7.18155 29.9639 7.29966C29.9905 7.41777 30.0023 7.50636 30.0289 7.60971L30.1322 7.91975C30.1617 7.98471 30.1972 8.04968 30.2208 8.09692L27.2503 6.94532L25.7532 6.56146L24.9382 6.36657C24.161 6.21165 23.3765 6.09537 22.5878 6.01814C22.5582 6.01814 22.5494 6.00633 22.5228 6.00633L20.2108 5.88822L18.5188 5.95318C17.7304 6.00633 16.942 6.10673 16.1565 6.23665L15.5748 6.34L14.4114 6.59689L13.8297 6.75044L13.2746 6.99552L12.8494 7.19041C12.8199 7.20222 12.7962 7.20222 12.7844 7.21994L12.4242 7.39711C12.3858 7.40892 12.3592 7.42663 12.3356 7.43549L11.934 7.64219C11.8454 7.68058 11.7569 7.73077 11.6771 7.77211C11.6387 7.80164 11.5885 7.82231 11.559 7.83707L11.2224 8.03196C11.1155 8.09104 11.012 8.15611 10.9123 8.22685L10.6555 8.40401L10.372 8.61071L10.1535 8.78788C10.1239 8.79969 10.1003 8.82627 10.0767 8.84103L9.88182 9.00934C9.87001 9.03887 9.84343 9.04773 9.82867 9.06249L9.59244 9.281L9.33555 9.52608L9.11704 9.76231C9.08751 9.79184 9.05208 9.81546 9.02845 9.83908C8.95908 9.92001 8.88617 9.99784 8.80995 10.0724C8.79813 10.1019 8.77156 10.1107 8.7568 10.1373L8.46151 10.4474L7.76465 11.1177C7.52843 11.3243 7.28629 11.5192 7.04121 11.6846L6.26757 12.1748C6.01068 12.3165 5.73607 12.4464 5.4526 12.5586C5.17819 12.6754 4.89834 12.7788 4.614 12.8687C4.07068 12.9868 3.51555 13.2053 3.03719 13.2437C2.93385 13.2437 2.81869 13.2732 2.71239 13.2821L2.38758 13.3588L2.07753 13.477C1.97181 13.5188 1.86833 13.5661 1.76748 13.6187C1.6789 13.6836 1.5726 13.7368 1.48401 13.7959C1.39543 13.8549 1.30685 13.9376 1.22712 14.0144C1.14739 14.0911 1.04995 14.1679 0.970225 14.2506L0.751717 14.5075C0.686755 14.6108 0.609982 14.7024 0.556831 14.8028C0.489251 14.8974 0.429034 14.9971 0.37671 15.101L0.234974 15.4376L0.116862 15.7742L0.0519 16.0843C0.0135134 16.2378 0.0135134 16.3943 -0.00125069 16.4682C-0.0160148 16.542 -0.00125069 16.6394 -0.00125069 16.731C-0.00375914 16.7873 0.000203824 16.8438 0.0105606 16.8993C0.0223718 16.9878 0.0400887 17.0676 0.0637112 17.1443L0.152296 17.3806C0.190682 17.4692 0.24088 17.5489 0.294031 17.6257L0.462341 17.8619L0.680849 18.0686C0.756541 18.1443 0.838531 18.2134 0.925933 18.2753C1.23598 18.5469 1.3098 18.6355 1.71433 18.8422C1.7793 18.8806 1.84426 18.9072 1.92103 18.9456C1.95942 18.9839 1.95942 18.9958 1.97418 19.0223C1.98599 19.1257 2.01257 19.229 2.03914 19.3324C2.0638 19.4387 2.0984 19.5425 2.14249 19.6424L2.24584 19.8787C2.25765 19.9082 2.27537 19.9318 2.28423 19.9436L2.43777 20.2271L2.63266 20.4987L2.85117 20.7438C2.92794 20.8206 3.00471 20.8856 3.09625 20.9623L3.35315 21.1572C3.44173 21.2222 3.53031 21.2753 3.63662 21.3255C3.73215 21.3805 3.83187 21.4279 3.93485 21.4673C4.01162 21.5057 4.10316 21.5322 4.19174 21.5558C4.28033 21.5795 4.36005 21.609 4.41025 21.6208C4.37187 22.3177 4.3571 22.9791 4.4634 23.2094C4.58152 23.4663 5.14846 22.6779 5.7154 21.7773C5.63862 22.6691 5.58547 23.7144 5.7154 24.0214C5.84532 24.3285 6.63077 23.3364 7.30401 22.2261C16.4577 20.109 24.8142 26.4368 25.6912 35.3721C25.5229 33.9783 23.8073 33.2017 23.0189 33.3937C22.635 34.3504 21.9736 35.5788 20.9135 36.3376C21.0021 35.4813 20.9637 34.6073 20.7836 33.7539C20.4947 34.9427 19.9484 36.0535 19.1832 37.0079C17.9578 37.0965 16.7323 36.5059 16.0827 35.6142C16.0296 35.5758 16.0178 35.4961 15.9794 35.4459L15.876 35.1742C15.8376 35.0856 15.8111 34.9971 15.7993 34.9026C15.7874 34.8081 15.7874 34.7254 15.7874 34.6191V34.4242C15.7993 34.3356 15.8258 34.247 15.8524 34.1526L15.941 33.8809C15.9941 33.7923 16.0296 33.7037 16.0945 33.6092C16.313 33.0187 16.313 32.4872 15.9174 32.1919C15.8406 32.1387 15.7638 32.1033 15.6723 32.062C15.6191 32.0501 15.5542 32.0236 15.504 32.0088L15.4006 31.9704L15.129 31.9055C15.0407 31.8799 14.9492 31.867 14.8573 31.8671C14.7635 31.8518 14.6688 31.8429 14.5738 31.8405C14.5089 31.8405 14.4439 31.8523 14.379 31.8523C14.2831 31.8515 14.1877 31.8644 14.0955 31.8907L13.8238 31.9409L13.5522 32.0295L13.2953 32.1476L13.0502 32.2775C10.0383 34.2411 11.8395 38.8328 13.8888 40.1674C13.1151 40.3092 12.3238 40.4775 12.1082 40.6458C12.6397 41.006 13.2185 41.2954 13.8268 41.5375L15.9174 42.1281C16.9892 42.3643 18.0729 42.4382 19.1714 42.3732C21.9616 42.1689 24.5985 41.0182 26.6458 39.1115C28.6932 37.2048 30.0284 34.6564 30.4304 31.8877L30.5072 32.2244L30.6253 32.9478L30.6785 33.2962L30.708 33.6801L30.7375 34.1053V34.312C30.7375 34.377 30.7494 34.4537 30.7494 34.5187C30.7494 34.5837 30.7375 34.6722 30.7375 34.7549V34.9321C30.7375 35.0207 30.7257 35.1004 30.7257 35.189C30.7257 35.2392 30.7257 35.2923 30.7139 35.3573L30.7021 35.6408C30.6903 35.6792 30.6903 35.7175 30.6903 35.7589L30.6519 36.0542C30.6519 36.0926 30.6519 36.1309 30.6401 36.1723L30.5899 36.5473V36.5768L30.5131 36.9371L30.4364 37.3209L30.333 37.7225L30.2297 38.1241L30.0997 38.5375L29.8163 39.2875L29.6627 39.6625L29.4855 40.0227C29.4737 40.0611 29.456 40.0877 29.4472 40.1113C28.582 41.8417 27.3418 43.3299 25.7916 44.4874C25.6882 44.5524 25.5849 44.6291 25.4815 44.7059C25.452 44.7354 25.4166 44.7443 25.393 44.7709L25.1095 44.9658L25.1479 45.0425H25.1597L25.703 44.9658H25.7148L26.7188 44.7886C26.8073 44.7768 26.9136 44.7502 27.0022 44.7236L27.1794 44.6852L27.4511 44.635L27.6873 44.5701C28.9777 44.26 30.2267 43.8319 31.4315 43.3299C29.3792 46.1351 26.6272 48.391 23.4116 49.8763C24.8969 49.7729 26.3821 49.5279 27.8113 49.1145C33.0142 47.579 37.3932 44.0799 40.0153 39.3643C39.4836 42.3541 38.2978 45.1894 36.5428 47.6676C37.7948 46.8408 38.9434 45.887 39.9917 44.8034C42.8818 41.7856 44.7788 37.9555 45.4278 33.8277C45.8707 35.8652 45.9947 37.9735 45.8028 40.0523C55.1248 27.0481 46.5764 13.5655 42.9976 10.0163C42.9858 9.98672 42.9681 9.97786 42.9681 9.95129C42.9386 10.1048 42.9297 10.2613 42.9179 10.4149C42.8795 10.7102 42.8411 10.9966 42.788 11.2801C42.7348 11.5635 42.6462 11.847 42.5695 12.1364C42.4927 12.4257 42.3746 12.6915 42.2594 12.9632C42.1443 13.2348 42.0143 13.4947 41.8756 13.7516C41.7332 14.0041 41.5785 14.2495 41.412 14.4868C41.2437 14.7319 41.0635 14.9652 40.8805 15.1837C40.6877 15.4084 40.4847 15.6242 40.2722 15.8303C40.1423 15.9485 40.0271 16.0489 39.8972 16.1552L39.6019 16.412C39.3713 16.595 39.1297 16.7636 38.8784 16.917C38.6319 17.076 38.3776 17.2229 38.1166 17.3569C37.845 17.4869 37.5733 17.602 37.3016 17.7172C37.0267 17.8212 36.7468 17.9119 36.463 17.9888C36.1796 18.0656 35.8813 18.1306 35.5979 18.1837C35.3144 18.2369 35.0073 18.2605 34.7209 18.2871C34.5142 18.2989 34.3075 18.3166 34.1303 18.3166C33.835 18.3166 33.5398 18.2871 33.2533 18.2635C32.9669 18.2398 32.6628 18.1985 32.3734 18.1335C32.0804 18.0805 31.7913 18.0075 31.5082 17.915H31.4964C31.7799 17.8855 32.0634 17.8619 32.3527 17.8117C32.6421 17.7615 32.9344 17.6936 33.2179 17.6168C33.5014 17.54 33.7848 17.4485 34.0565 17.3451C34.3282 17.2418 34.6116 17.1089 34.8715 16.9849C35.1361 16.8558 35.3943 16.7139 35.6451 16.5597C35.8902 16.3914 36.1353 16.2231 36.3686 16.0429C36.5999 15.8629 36.8198 15.6686 37.027 15.4612C37.2455 15.2664 37.4404 15.0478 37.6353 14.8293C37.8302 14.6108 38.0103 14.3657 38.1786 14.1325C38.2082 14.0941 38.2318 14.0439 38.2554 14.0026L38.6304 13.412C38.7721 13.1551 38.9021 12.8952 39.0143 12.6236C39.1265 12.3519 39.2328 12.0803 39.3243 11.7968C39.4159 11.5133 39.4779 11.2417 39.5428 10.9582C39.6078 10.6747 39.6462 10.3765 39.6728 10.093C39.6993 9.80955 39.723 9.50246 39.723 9.21604C39.723 9.00934 39.7111 8.80264 39.6934 8.62548C39.6639 8.33019 39.6285 8.04377 39.5901 7.7603C39.5387 7.46902 39.4737 7.18031 39.3952 6.89513C39.3066 6.62347 39.218 6.34 39.1117 6.06834C39.0054 5.79668 38.8755 5.52502 38.7515 5.27108C38.6275 5.01714 38.468 4.75434 38.3086 4.50925C38.1491 4.26417 37.9719 4.0309 37.7918 3.80058L37.2013 3.1421C37.0922 3.03159 36.9799 2.92426 36.8646 2.82024C36.286 2.37054 35.687 1.94784 35.0693 1.55349C34.9807 1.50329 34.901 1.4649 34.8124 1.42356C34.3872 1.1519 33.9856 1.01017 33.587 0.880244L33.5427 0.835952Z" fill="#EA2845"></path></g><defs><clipPath id="clip0_165_1611"><rect width="50" height="50" fill="white"></rect></clipPath></defs></svg> 