<?xml version="1.0" encoding="UTF-8"?> <svg xmlns="http://www.w3.org/2000/svg" width="76" height="46" viewBox="0 0 76 46" fill="none"><g clip-path="url(#clip0_165_1834)"><path d="M21.6023 16.7827C21.6023 17.7179 21.7023 18.4761 21.8773 19.0322C22.0773 19.5882 22.3273 20.1948 22.6773 20.8519C22.8023 21.0541 22.8523 21.2563 22.8523 21.4333C22.8523 21.686 22.7023 21.9388 22.3773 22.1915L20.8023 23.253C20.5773 23.4047 20.3523 23.4805 20.1523 23.4805C19.9023 23.4805 19.6523 23.3541 19.4023 23.1267C19.0523 22.7476 18.7523 22.3432 18.5023 21.9388C18.2523 21.5091 18.0023 21.0289 17.7273 20.4475C15.7773 22.7728 13.3273 23.9355 10.3773 23.9355C8.27734 23.9355 6.60234 23.3289 5.37734 22.1157C4.15234 20.9025 3.52734 19.2849 3.52734 17.2629C3.52734 15.1146 4.27734 13.3706 5.80234 12.0563C7.32734 10.7421 9.35234 10.0849 11.9273 10.0849C12.7773 10.0849 13.6523 10.1607 14.5773 10.2871C15.5023 10.4135 16.4523 10.6157 17.4523 10.8432V8.9981C17.4523 7.07722 17.0523 5.73766 16.2773 4.95414C15.4773 4.17063 14.1273 3.79151 12.2023 3.79151C11.3273 3.79151 10.4273 3.89261 9.50234 4.12008C8.57734 4.34755 7.67734 4.62557 6.80234 4.97942C6.40234 5.15634 6.10234 5.25744 5.92734 5.30799C5.75234 5.35854 5.62734 5.38381 5.52734 5.38381C5.17734 5.38381 5.00234 5.13107 5.00234 4.6003V3.36184C5.00234 2.95744 5.05234 2.65414 5.17734 2.47722C5.30234 2.3003 5.52734 2.12338 5.87734 1.94645C6.75234 1.49151 7.80234 1.11239 9.02734 0.809089C10.2523 0.480518 11.5523 0.32887 12.9273 0.32887C15.9023 0.32887 18.0773 1.01129 19.4773 2.37612C20.8523 3.74096 21.5523 5.81349 21.5523 8.59371V16.7827H21.6023ZM11.4523 20.6245C12.2773 20.6245 13.1273 20.4728 14.0273 20.1695C14.9273 19.8662 15.7273 19.3102 16.4023 18.5519C16.8023 18.0717 17.1023 17.541 17.2523 16.9344C17.4023 16.3278 17.5023 15.5948 17.5023 14.7355V13.6739C16.7773 13.497 16.0023 13.3454 15.2023 13.2443C14.4023 13.1432 13.6273 13.0926 12.8523 13.0926C11.1773 13.0926 9.95234 13.4212 9.12734 14.1036C8.30234 14.786 7.90234 15.7465 7.90234 17.0102C7.90234 18.1981 8.20234 19.0827 8.82734 19.6893C9.42734 20.3212 10.3023 20.6245 11.4523 20.6245ZM31.5273 23.3541C31.0773 23.3541 30.7773 23.2783 30.5773 23.1014C30.3773 22.9497 30.2023 22.5959 30.0523 22.1157L24.1773 2.57832C24.0273 2.07283 23.9523 1.74425 23.9523 1.56733C23.9523 1.16294 24.1523 0.935463 24.5523 0.935463H27.0023C27.4773 0.935463 27.8023 1.01129 27.9773 1.18821C28.1773 1.33986 28.3273 1.6937 28.4773 2.17392L32.6773 18.9058L36.5773 2.17392C36.7023 1.66843 36.8523 1.33986 37.0523 1.18821C37.2523 1.03656 37.6023 0.935463 38.0523 0.935463H40.0523C40.5273 0.935463 40.8523 1.01129 41.0523 1.18821C41.2523 1.33986 41.4273 1.6937 41.5273 2.17392L45.4773 19.108L49.8023 2.17392C49.9523 1.66843 50.1273 1.33986 50.3023 1.18821C50.5023 1.03656 50.8273 0.935463 51.2773 0.935463H53.6023C54.0023 0.935463 54.2273 1.13766 54.2273 1.56733C54.2273 1.6937 54.2023 1.82008 54.1773 1.97173C54.1523 2.12338 54.1023 2.32557 54.0023 2.60359L47.9773 22.141C47.8273 22.6465 47.6523 22.975 47.4523 23.1267C47.2523 23.2783 46.9273 23.3794 46.5023 23.3794H44.3523C43.8773 23.3794 43.5523 23.3036 43.3523 23.1267C43.1523 22.9497 42.9773 22.6212 42.8773 22.1157L39.0023 5.81348L35.1523 22.0904C35.0273 22.5959 34.8773 22.9245 34.6773 23.1014C34.4773 23.2783 34.1273 23.3541 33.6773 23.3541H31.5273ZM63.6523 24.0366C62.3523 24.0366 61.0523 23.8849 59.8023 23.5816C58.5523 23.2783 57.5773 22.9497 56.9273 22.5706C56.5273 22.3432 56.2523 22.0904 56.1523 21.8629C56.0523 21.6355 56.0023 21.3827 56.0023 21.1552V19.8662C56.0023 19.3355 56.2023 19.0827 56.5773 19.0827C56.7273 19.0827 56.8773 19.108 57.0273 19.1585C57.1773 19.2091 57.4023 19.3102 57.6523 19.4113C58.5023 19.7904 59.4273 20.0937 60.4023 20.2959C61.4023 20.4981 62.3773 20.5992 63.3773 20.5992C64.9523 20.5992 66.1773 20.3212 67.0273 19.7651C67.8773 19.2091 68.3273 18.4003 68.3273 17.364C68.3273 16.6563 68.1023 16.075 67.6523 15.5948C67.2023 15.1146 66.3523 14.6849 65.1273 14.2805L61.5023 13.1432C59.6773 12.5618 58.3273 11.7025 57.5023 10.5651C56.6773 9.45304 56.2523 8.21458 56.2523 6.9003C56.2523 5.83876 56.4773 4.90359 56.9273 4.0948C57.3773 3.28601 57.9773 2.57832 58.7273 2.02228C59.4773 1.44096 60.3273 1.01129 61.3273 0.707991C62.3273 0.404694 63.3773 0.27832 64.4773 0.27832C65.0273 0.27832 65.6023 0.303595 66.1523 0.379419C66.7273 0.455243 67.2523 0.556342 67.7773 0.657441C68.2773 0.783815 68.7523 0.910188 69.2023 1.06184C69.6523 1.21349 70.0023 1.36513 70.2523 1.51678C70.6023 1.71898 70.8523 1.92118 71.0023 2.14865C71.1523 2.35085 71.2273 2.62887 71.2273 2.98272V4.17063C71.2273 4.7014 71.0273 4.97942 70.6523 4.97942C70.4523 4.97942 70.1273 4.87832 69.7023 4.67612C68.2773 4.01898 66.6773 3.69041 64.9023 3.69041C63.4773 3.69041 62.3523 3.91788 61.5773 4.3981C60.8023 4.87832 60.4023 5.61129 60.4023 6.64755C60.4023 7.35524 60.6523 7.96184 61.1523 8.44206C61.6523 8.92228 62.5773 9.4025 63.9023 9.83217L67.4523 10.9695C69.2523 11.5508 70.5523 12.3596 71.3273 13.3959C72.1023 14.4322 72.4773 15.6201 72.4773 16.9344C72.4773 18.0212 72.2523 19.0069 71.8273 19.8662C71.3773 20.7256 70.7773 21.4838 70.0023 22.0904C69.2273 22.7223 68.3023 23.1772 67.2273 23.5058C66.1023 23.8596 64.9273 24.0366 63.6523 24.0366Z" fill="#252F3E"></path><path fill-rule="evenodd" clip-rule="evenodd" d="M68.376 36.7468C60.151 42.8885 48.201 46.149 37.926 46.149C23.526 46.149 10.551 40.7654 0.750973 31.8182C-0.024027 31.1105 0.675973 30.1501 1.60097 30.7061C12.201 36.9237 25.276 40.6896 38.801 40.6896C47.926 40.6896 57.951 38.7687 67.176 34.8259C68.551 34.194 69.726 35.7358 68.376 36.7468Z" fill="#FF9900"></path><path fill-rule="evenodd" clip-rule="evenodd" d="M71.7994 32.804C70.7494 31.4392 64.8494 32.1469 62.1744 32.4755C61.3744 32.5766 61.2494 31.8689 61.9744 31.3381C66.6744 28.0018 74.3994 28.9623 75.2994 30.0744C76.1994 31.2117 75.0494 39.0216 70.6494 42.7623C69.9744 43.3436 69.3244 43.0403 69.6244 42.2821C70.6244 39.7799 72.8494 34.1436 71.7994 32.804Z" fill="#FF9900"></path></g><defs><clipPath id="clip0_165_1834"><rect width="76" height="46" fill="white"></rect></clipPath></defs></svg> 