<?xml version="1.0" encoding="UTF-8"?> <svg xmlns="http://www.w3.org/2000/svg" width="52" height="49" viewBox="0 0 52 49" fill="none"><path d="M18.0575 3.54449H32.1614L17.5201 46.9249C17.3697 47.3707 17.0832 47.7581 16.701 48.0325C16.3188 48.3069 15.8602 48.4545 15.3898 48.4546H4.41344C4.05697 48.4547 3.70562 48.3698 3.38844 48.2071C3.07127 48.0444 2.79739 47.8086 2.58947 47.519C2.38155 47.2295 2.24556 46.8946 2.19275 46.542C2.13993 46.1895 2.17182 45.8295 2.28577 45.4917L15.9266 5.07415C16.077 4.6282 16.3635 4.24068 16.7458 3.96616C17.1281 3.69164 17.5868 3.54451 18.0575 3.54449Z" fill="url(#paint0_linear_165_1768)"></path><path d="M38.554 32.6416H16.1886C15.9807 32.6414 15.7775 32.7038 15.6055 32.8207C15.4336 32.9376 15.3008 33.1035 15.2245 33.297C15.1482 33.4904 15.132 33.7023 15.1779 33.9051C15.2237 34.1079 15.3296 34.2922 15.4817 34.434L29.8532 47.8478C30.2717 48.2381 30.8226 48.4551 31.3948 48.455H44.059L38.554 32.6416Z" fill="#0078D4"></path><path d="M18.0585 3.54494C17.5827 3.54311 17.1189 3.69346 16.7346 3.97402C16.3503 4.25459 16.0659 4.65066 15.9227 5.1044L2.3036 45.4553C2.18199 45.7943 2.14381 46.1576 2.19229 46.5145C2.24077 46.8713 2.37449 47.2113 2.58214 47.5055C2.78979 47.7998 3.06525 48.0397 3.38523 48.205C3.70521 48.3703 4.06029 48.456 4.42043 48.4551H15.6801C16.0994 48.3801 16.4914 48.1952 16.8159 47.9193C17.1404 47.6433 17.3858 47.2861 17.5271 46.8842L20.2431 38.88L29.9443 47.9286C30.3508 48.2648 30.8608 48.4508 31.3884 48.4551H44.0054L38.4718 32.6416L22.3404 32.6454L32.2134 3.54494H18.0585Z" fill="url(#paint1_linear_165_1768)"></path><path d="M36.0729 5.07242C35.9227 4.62719 35.6365 4.24031 35.2548 3.96627C34.8731 3.69224 34.4151 3.54487 33.9452 3.54492H18.2266C18.6964 3.54495 19.1545 3.69235 19.5361 3.96637C19.9178 4.2404 20.204 4.62724 20.3542 5.07242L33.9956 45.4916C34.1096 45.8294 34.1416 46.1895 34.0888 46.5422C34.036 46.8948 33.9001 47.2298 33.6921 47.5194C33.4842 47.8091 33.2103 48.0451 32.8931 48.2079C32.5759 48.3707 32.2245 48.4556 31.8679 48.4556H47.5871C47.9436 48.4555 48.2949 48.3705 48.6121 48.2077C48.9292 48.0449 49.2031 47.8089 49.4109 47.5192C49.6188 47.2296 49.7547 46.8946 49.8074 46.542C49.8602 46.1894 49.8282 45.8294 49.7142 45.4916L36.0729 5.07242Z" fill="url(#paint2_linear_165_1768)"></path><defs><linearGradient id="paint0_linear_165_1768" x1="23.1979" y1="6.87249" x2="8.55069" y2="50.1441" gradientUnits="userSpaceOnUse"><stop stop-color="#114A8B"></stop><stop offset="1" stop-color="#0669BC"></stop></linearGradient><linearGradient id="paint1_linear_165_1768" x1="27.7744" y1="27.0386" x2="24.3863" y2="28.1843" gradientUnits="userSpaceOnUse"><stop stop-opacity="0.3"></stop><stop offset="0.071" stop-opacity="0.2"></stop><stop offset="0.321" stop-opacity="0.1"></stop><stop offset="0.623" stop-opacity="0.05"></stop><stop offset="1" stop-opacity="0"></stop></linearGradient><linearGradient id="paint2_linear_165_1768" x1="25.9112" y1="5.61084" x2="41.9895" y2="48.4464" gradientUnits="userSpaceOnUse"><stop stop-color="#3CCBF4"></stop><stop offset="1" stop-color="#2892DF"></stop></linearGradient></defs></svg> 