<?xml version="1.0" encoding="UTF-8"?> <svg xmlns="http://www.w3.org/2000/svg" width="97" height="34" viewBox="0 0 97 34" fill="none"><path fill-rule="evenodd" clip-rule="evenodd" d="M7.30936 16.6468C7.29328 19.7436 9.53582 21.5898 13.1144 20.7504V12.5432C9.49058 11.4257 7.32452 13.6866 7.30936 16.6468ZM13.2239 0.675781H18.1527V24.2995C13.4283 25.0816 8.90345 25.5777 5.66642 23.7449C1.49846 21.3852 1.16338 13.8866 4.4615 10.5468C6.1337 8.85361 9.50014 7.6616 13.1144 8.43947V1.00858C13.105 0.851097 13.0963 0.694315 13.2239 0.675781Z" fill="black"></path><path fill-rule="evenodd" clip-rule="evenodd" d="M26.1476 5.88852H21.2188V0.675781H26.1476V5.88852Z" fill="black"></path><path fill-rule="evenodd" clip-rule="evenodd" d="M85.2941 20.9722C90.6672 23.0866 91.2617 11.2336 85.8418 12.3212C82.476 12.9967 82.584 19.9058 85.2941 20.9722ZM85.5132 8.21759C89.6164 7.77335 92.712 9.60687 93.947 12.4322C96.0542 17.2527 93.8311 22.7841 90.4421 24.4104C88.6856 25.2534 86.8463 25.3336 85.1846 25.1868C80.0485 24.7332 76.8093 19.433 78.6129 13.5412C78.8951 12.6191 79.2122 12.055 79.3797 11.7667C80.4961 9.84452 82.3809 8.55677 85.5132 8.21759Z" fill="black"></path><path fill-rule="evenodd" clip-rule="evenodd" d="M32.9388 19.0868C31.5755 21.4067 35.0007 21.9625 37.2103 21.3051V17.8668C35.5125 18.1068 33.5801 17.9952 32.9388 19.0868ZM41.5915 24.5214C37.5201 24.7586 31.3326 26.1629 29.1052 23.4124C27.7966 21.7962 27.9373 18.7136 29.1052 17.2013C30.6144 15.2473 33.9089 14.8211 36.8817 14.5395C37.1516 13.8666 36.9696 12.7718 36.6627 12.3212C33.9434 11.6198 31.2416 12.7066 29.3244 13.5412V9.65948C32.2201 8.31223 38.9276 6.89368 40.9344 9.99217C41.9883 11.6196 41.5915 14.4577 41.5915 16.9794V24.5214Z" fill="black"></path><path fill-rule="evenodd" clip-rule="evenodd" d="M58.8959 24.7434H53.9671V18.3105C53.9671 16.1925 54.3055 13.5069 53.2002 12.6541C52.3347 11.986 50.2812 12.3212 49.0383 12.6541V24.7434H44.1094V9.32687C49.1479 8.00158 58.2427 6.58066 58.8959 12.9868C59.2181 16.1453 58.6573 20.8839 58.8959 24.7434Z" fill="black"></path><path fill-rule="evenodd" clip-rule="evenodd" d="M66.2366 19.4193C67.066 20.7781 69.3119 21.2876 71.1653 20.4174C71.0635 17.8218 71.0279 15.159 71.0558 12.4319C66.7962 11.2923 64.2576 16.178 66.2366 19.4193ZM78.6134 8.88295C78.1747 10.2133 77.5326 11.3376 76.9705 12.543C76.4625 12.6583 76.0223 12.3386 75.7655 12.543C75.6531 17.9494 76.9026 25.2785 74.7798 29.1793C73.5017 31.5279 71.1485 33.0346 67.5508 33.283C64.9301 33.464 62.896 33.0304 60.9791 32.2849V27.6266C63.2275 28.9559 68.9088 30.0397 70.5082 27.2938C70.9787 26.486 70.9489 25.651 71.1653 24.4102C70.1356 24.465 69.136 24.9478 67.8795 24.9648C62.7139 25.0343 59.5182 20.8694 60.76 15.0937C61.2404 12.8596 62.5331 11.0608 64.2651 9.99197C67.8623 7.77194 73.3916 7.94051 78.6134 8.88295Z" fill="black"></path><path fill-rule="evenodd" clip-rule="evenodd" d="M26.1467 8.52832C26.1411 12.2035 26.1419 14.8444 26.1416 19.3093C25.9322 23.697 25.9809 27.1911 24.3943 29.2906C24.0814 29.7047 23.4168 30.3086 22.8608 30.7326C22.3939 31.0885 21.504 31.8103 20.9988 31.8417C20.4896 31.8734 19.1812 31.1258 18.5891 30.8434C17.8116 30.4726 17.0928 29.9802 16.2891 29.7344C18.1639 28.558 19.9436 27.676 20.6702 25.298C21.3021 23.2299 21.2179 20.2331 21.2179 17.3125C21.2179 14.4286 21.2306 11.0758 21.2306 8.52962L26.1467 8.52832Z" fill="black"></path></svg> 