<?xml version="1.0" encoding="UTF-8"?> <svg xmlns="http://www.w3.org/2000/svg" width="124" height="30" viewBox="0 0 124 30" fill="none"><g clip-path="url(#clip0_165_1636)"><path d="M95.0969 23.4293L95.0883 18.1415M95.0883 18.1415L95.0625 8.69514M95.0883 18.1415L100.318 12.7661M95.0883 18.1415L100.344 23.4468M65.3095 18.2115C65.3348 17.0775 65.0109 15.9188 64.3548 14.981C63.4093 13.6297 61.879 12.7071 60.2002 12.6873C60.0883 12.6873 59.9775 12.6873 59.8647 12.696C59.2011 12.7378 58.5583 12.8316 57.9896 13.0725C54.2491 14.6565 53.5864 19.9431 56.7423 22.3349C59.4754 24.4063 63.4509 23.5605 64.8279 20.4002C65.1188 19.7323 65.3095 18.8904 65.3095 18.2115ZM65.3095 18.2115V8.65137M90.5469 13.3176C89.7724 12.8083 88.8689 12.6245 87.975 12.626C87.8781 12.626 87.7784 12.6309 87.6912 12.6347C85.1069 12.7479 82.7108 14.6065 82.7108 18.2115C82.7108 22.4736 87.2009 24.7739 90.5555 22.7639M105.626 22.2999C108.269 19.9956 113.565 15.375 113.565 15.375C113.565 15.375 113.372 15.0031 113.247 14.8322C112.178 13.3724 110.545 12.6435 108.825 12.6435C104.575 12.6435 101.389 18.2373 105.626 22.2999ZM105.626 22.2999C105.919 22.5812 106.322 22.8015 106.77 22.9915C108.324 23.6512 110.452 23.5971 111.604 22.7289M122.931 12.7661C121.626 12.7696 120.355 13.2349 119.413 14.1318C117.928 15.3797 117.605 16.9554 117.624 18.9469L117.667 23.4731M73.9966 12.661C73.8761 12.6633 73.7563 12.6763 73.6353 12.6785C70.4124 12.7388 68.0886 16.1459 68.7926 19.3058C69.4786 22.3851 72.7838 24.2084 75.6395 23.2017C78.9648 22.3142 80.3211 18.0523 78.4952 15.1736C77.4966 13.5992 75.8039 12.6261 73.9966 12.661Z" stroke="#394D54" stroke-width="2" stroke-linecap="round" stroke-linejoin="round"></path><path d="M29.9796 9.4617H34.6278V14.2978H36.9781C38.0634 14.2978 39.1797 14.1011 40.2075 13.7466C40.7126 13.5723 41.2795 13.3297 41.7777 13.0247C41.1215 12.1527 40.7865 11.0518 40.6879 9.96653C40.554 8.49048 40.8465 6.5692 41.8281 5.41393L42.3167 4.83874L42.8989 5.31509C44.3648 6.5138 45.5976 8.18875 45.8149 10.0982C47.58 9.56973 49.6524 9.69472 51.2082 10.6087L51.8465 10.9835L51.5105 11.6509C50.1947 14.2647 47.4439 15.0744 44.7546 14.9311C40.7302 25.1328 31.9688 29.9627 21.3456 29.9627C15.8573 29.9627 10.8219 27.8745 7.95446 22.9185C7.78635 22.6106 7.64238 22.2887 7.4897 21.9725C6.52044 19.791 6.19852 17.4011 6.41691 15.0132L6.48245 14.2979H10.4571V9.46179H15.1053V4.7309H24.4017V0H29.9796L29.9796 9.4617Z" fill="#394D54"></path><mask id="mask0_165_1636" style="mask-type:luminance" maskUnits="userSpaceOnUse" x="7" y="0" width="44" height="30"><path d="M15.4481 0.414062V9.9313H10.976V14.6899H7.23177C7.21588 14.8277 7.20301 14.9657 7.18995 15.1037C6.95594 17.6963 7.40063 20.0873 8.42233 22.1317L8.76536 22.7589C8.97096 23.1348 9.21079 23.4878 9.46413 23.8322C9.71716 24.1761 9.8068 24.3665 9.96597 24.5951C12.6673 27.6853 16.6941 29.1727 21.3432 29.1727C31.639 29.1727 40.3768 24.5303 44.2438 14.1016C46.9874 14.3881 49.6192 13.6721 50.8186 11.2891C48.9081 10.1669 46.4525 10.5266 45.0379 11.2503L48.7859 0.414062L34.1498 9.9313H29.4744V0.414062H15.4481Z" fill="white"></path></mask><g mask="url(#mask0_165_1636)"><path d="M25.1797 0.789062H29.2082V4.88935H25.1797V0.789062Z" fill="#20C2EF"></path><path d="M25.6758 4.54791V1.13086V4.54791ZM26.2799 4.54791V1.13086V4.54791ZM26.8901 4.54791V1.13086V4.54791ZM27.5006 4.54791V1.13086V4.54791ZM28.1111 4.54791V1.13086V4.54791ZM28.7151 4.54791V1.13086V4.54791Z" fill="black"></path><path d="M25.6758 4.54791V1.13086M26.2799 4.54791V1.13086M26.8901 4.54791V1.13086M27.5006 4.54791V1.13086M28.1111 4.54791V1.13086M28.7151 4.54791V1.13086" stroke="#394D54" stroke-width="1.56"></path><path d="M29.8281 4.88867H33.8566V0.788609H29.8281V4.88867Z" fill="#00ACD3"></path><path d="M30.3242 1.12982V4.54688V1.12982ZM30.9283 1.12982V4.54688V1.12982ZM31.5385 1.12982V4.54688V1.12982ZM32.1491 1.12982V4.54688V1.12982ZM32.7595 1.12982V4.54688V1.12982ZM33.3635 1.12982V4.54688V1.12982Z" fill="black"></path><path d="M30.3242 1.12982V4.54688M30.9283 1.12982V4.54688M31.5385 1.12982V4.54688M32.1491 1.12982V4.54688M32.7595 1.12982V4.54688M33.3635 1.12982V4.54688" stroke="#394D54" stroke-width="1.56"></path><path d="M6.58594 5.52051H10.6144V9.62057H6.58594V5.52051Z" fill="#00ACD3"></path><path d="M6.58594 10.251H10.6144V14.3513H6.58594V10.251Z" fill="#20C2EF"></path><path d="M7.08203 9.27838V5.86133V9.27838ZM7.68615 9.27838V5.86133V9.27838ZM8.29635 9.27838V5.86133V9.27838ZM8.90689 9.27838V5.86133V9.27838ZM9.51732 9.27838V5.86133V9.27838ZM10.1213 9.27838V5.86133V9.27838Z" fill="black"></path><path d="M7.08203 9.27838V5.86133M7.68615 9.27838V5.86133M8.29635 9.27838V5.86133M8.90689 9.27838V5.86133M9.51732 9.27838V5.86133M10.1213 9.27838V5.86133" stroke="#394D54" stroke-width="1.56"></path><path d="M7.08203 14.0098V10.5928V14.0098ZM7.68615 14.0098V10.5928V14.0098ZM8.29635 14.0098V10.5928V14.0098ZM8.90689 14.0098V10.5928V14.0098ZM9.51732 14.0098V10.5928V14.0098ZM10.1213 14.0098V10.5928V14.0098Z" fill="black"></path><path d="M7.08203 14.0098V10.5928M7.68615 14.0098V10.5928M8.29635 14.0098V10.5928M8.90689 14.0098V10.5928M9.51732 14.0098V10.5928M10.1213 14.0098V10.5928" stroke="#394D54" stroke-width="1.56"></path><path d="M11.2344 14.3506H15.2629V10.2505H11.2344V14.3506Z" fill="#00ACD3"></path><path d="M11.2344 9.62012H15.2629V5.51983H11.2344V9.62012Z" fill="#20C2EF"></path><path d="M11.7305 10.5917V14.0088V10.5917ZM12.3346 10.5917V14.0088V10.5917ZM12.9448 10.5917V14.0088V10.5917ZM13.5553 10.5917V14.0088V10.5917ZM14.1658 10.5917V14.0088V10.5917ZM14.7698 10.5917V14.0088V10.5917Z" fill="black"></path><path d="M11.7305 10.5917V14.0088M12.3346 10.5917V14.0088M12.9448 10.5917V14.0088M13.5553 10.5917V14.0088M14.1658 10.5917V14.0088M14.7698 10.5917V14.0088" stroke="#394D54" stroke-width="1.56"></path><path d="M11.7305 5.86127V9.27832V5.86127ZM12.3346 5.86127V9.27832V5.86127ZM12.9448 5.86127V9.27832V5.86127ZM13.5553 5.86127V9.27832V5.86127ZM14.1658 5.86127V9.27832V5.86127ZM14.7698 5.86127V9.27832V5.86127Z" fill="black"></path><path d="M11.7305 5.86127V9.27832M12.3346 5.86127V9.27832M12.9448 5.86127V9.27832M13.5553 5.86127V9.27832M14.1658 5.86127V9.27832M14.7698 5.86127V9.27832" stroke="#394D54" stroke-width="1.56"></path><path d="M15.8828 5.52051H19.9113V9.62057H15.8828V5.52051Z" fill="#00ACD3"></path><path d="M15.8828 10.251H19.9113V14.3513H15.8828V10.251Z" fill="#20C2EF"></path><path d="M16.3789 9.27838V5.86133V9.27838ZM16.983 9.27838V5.86133V9.27838ZM17.5932 9.27838V5.86133V9.27838ZM18.2038 9.27838V5.86133V9.27838ZM18.8142 9.27838V5.86133V9.27838ZM19.4182 9.27838V5.86133V9.27838Z" fill="black"></path><path d="M16.3789 9.27838V5.86133M16.983 9.27838V5.86133M17.5932 9.27838V5.86133M18.2038 9.27838V5.86133M18.8142 9.27838V5.86133M19.4182 9.27838V5.86133" stroke="#394D54" stroke-width="1.56"></path><path d="M16.3789 14.0098V10.5928V14.0098ZM16.983 14.0098V10.5928V14.0098ZM17.5932 14.0098V10.5928V14.0098ZM18.2038 14.0098V10.5928V14.0098ZM18.8142 14.0098V10.5928V14.0098ZM19.4182 14.0098V10.5928V14.0098Z" fill="black"></path><path d="M16.3789 14.0098V10.5928M16.983 14.0098V10.5928M17.5932 14.0098V10.5928M18.2038 14.0098V10.5928M18.8142 14.0098V10.5928M19.4182 14.0098V10.5928" stroke="#394D54" stroke-width="1.56"></path><path d="M20.5312 14.3506H24.5597V10.2505H20.5312V14.3506Z" fill="#00ACD3"></path><path d="M20.5312 9.62012H24.5597V5.51983H20.5312V9.62012Z" fill="#20C2EF"></path><path d="M21.0273 10.5917V14.0088V10.5917ZM21.6315 10.5917V14.0088V10.5917ZM22.2417 10.5917V14.0088V10.5917ZM22.8522 10.5917V14.0088V10.5917ZM23.4626 10.5917V14.0088V10.5917ZM24.0666 10.5917V14.0088V10.5917Z" fill="black"></path><path d="M21.0273 10.5917V14.0088M21.6315 10.5917V14.0088M22.2417 10.5917V14.0088M22.8522 10.5917V14.0088M23.4626 10.5917V14.0088M24.0666 10.5917V14.0088" stroke="#394D54" stroke-width="1.56"></path><path d="M21.0273 5.86127V9.27832V5.86127ZM21.6315 5.86127V9.27832V5.86127ZM22.2417 5.86127V9.27832V5.86127ZM22.8522 5.86127V9.27832V5.86127ZM23.4626 5.86127V9.27832V5.86127ZM24.0666 5.86127V9.27832V5.86127Z" fill="black"></path><path d="M21.0273 5.86127V9.27832M21.6315 5.86127V9.27832M22.2417 5.86127V9.27832M22.8522 5.86127V9.27832M23.4626 5.86127V9.27832M24.0666 5.86127V9.27832" stroke="#394D54" stroke-width="1.56"></path><path d="M25.1797 5.52051H29.2082V9.62057H25.1797V5.52051Z" fill="#00ACD3"></path><path d="M25.1797 10.251H29.2082V14.3513H25.1797V10.251Z" fill="#20C2EF"></path><path d="M25.6758 9.27838V5.86133V9.27838ZM26.2799 9.27838V5.86133V9.27838ZM26.8901 9.27838V5.86133V9.27838ZM27.5006 9.27838V5.86133V9.27838ZM28.1111 9.27838V5.86133V9.27838ZM28.7151 9.27838V5.86133V9.27838Z" fill="black"></path><path d="M25.6758 9.27838V5.86133M26.2799 9.27838V5.86133M26.8901 9.27838V5.86133M27.5006 9.27838V5.86133M28.1111 9.27838V5.86133M28.7151 9.27838V5.86133" stroke="#394D54" stroke-width="1.56"></path><path d="M25.6758 14.0098V10.5928V14.0098ZM26.2799 14.0098V10.5928V14.0098ZM26.8901 14.0098V10.5928V14.0098ZM27.5006 14.0098V10.5928V14.0098ZM28.1111 14.0098V10.5928V14.0098ZM28.7151 14.0098V10.5928V14.0098Z" fill="black"></path><path d="M25.6758 14.0098V10.5928M26.2799 14.0098V10.5928M26.8901 14.0098V10.5928M27.5006 14.0098V10.5928M28.1111 14.0098V10.5928M28.7151 14.0098V10.5928" stroke="#394D54" stroke-width="1.56"></path><path d="M29.8281 14.3506H33.8566V10.2505H29.8281V14.3506Z" fill="#00ACD3"></path><path d="M29.8281 9.62012H33.8566V5.51983H29.8281V9.62012Z" fill="#20C2EF"></path><path d="M30.3242 10.5917V14.0088V10.5917ZM30.9283 10.5917V14.0088V10.5917ZM31.5385 10.5917V14.0088V10.5917ZM32.1491 10.5917V14.0088V10.5917ZM32.7595 10.5917V14.0088V10.5917ZM33.3635 10.5917V14.0088V10.5917Z" fill="black"></path><path d="M30.3242 10.5917V14.0088M30.9283 10.5917V14.0088M31.5385 10.5917V14.0088M32.1491 10.5917V14.0088M32.7595 10.5917V14.0088M33.3635 10.5917V14.0088" stroke="#394D54" stroke-width="1.56"></path><path d="M30.3242 5.86127V9.27832V5.86127ZM30.9283 5.86127V9.27832V5.86127ZM31.5385 5.86127V9.27832V5.86127ZM32.1491 5.86127V9.27832V5.86127ZM32.7595 5.86127V9.27832V5.86127ZM33.3635 5.86127V9.27832V5.86127Z" fill="black"></path><path d="M30.3242 5.86127V9.27832M30.9283 5.86127V9.27832M31.5385 5.86127V9.27832M32.1491 5.86127V9.27832M32.7595 5.86127V9.27832M33.3635 5.86127V9.27832" stroke="#394D54" stroke-width="1.56"></path></g><mask id="mask1_165_1636" style="mask-type:luminance" maskUnits="userSpaceOnUse" x="7" y="0" width="44" height="30"><path d="M15.4481 0.414062V9.9313H10.976V14.6899H7.23177C7.21588 14.8277 7.20301 14.9657 7.18995 15.1037C6.95594 17.6963 7.40063 20.0873 8.42233 22.1317L8.76536 22.7589C8.97096 23.1348 9.21079 23.4878 9.46413 23.8322C9.71716 24.1761 9.8068 24.3665 9.96597 24.5951C12.6673 27.6853 16.6941 29.1727 21.3432 29.1727C31.639 29.1727 40.3768 24.5303 44.2438 14.1016C46.9874 14.3881 49.6192 13.6721 50.8186 11.2891C48.9081 10.1669 46.4525 10.5266 45.0379 11.2503L48.7859 0.414062L34.1498 9.9313H29.4744V0.414062H15.4481Z" fill="white"></path></mask><g mask="url(#mask1_165_1636)"><path d="M45.0395 11.2517C45.3512 8.78648 43.5385 6.85003 42.4143 5.93066C41.1189 7.45503 40.9176 11.4502 42.95 13.1322C41.8158 14.1576 39.4256 15.087 36.9785 15.087H6.91046C6.67247 17.6871 6.91046 30.2076 6.91046 30.2076H51.0219L50.8214 11.2923C48.9108 10.1702 46.4541 10.528 45.0395 11.2517Z" fill="#17B5EB"></path></g><mask id="mask2_165_1636" style="mask-type:luminance" maskUnits="userSpaceOnUse" x="7" y="0" width="44" height="30"><path d="M15.4481 0.414062V9.9313H10.976V14.6899H7.23177C7.21588 14.8277 7.20301 14.9657 7.18995 15.1037C6.95594 17.6963 7.40063 20.0873 8.42233 22.1317L8.76536 22.7589C8.97096 23.1348 9.21079 23.4878 9.46413 23.8322C9.71716 24.1761 9.8068 24.3665 9.96597 24.5951C12.6673 27.6853 16.6941 29.1727 21.3432 29.1727C31.639 29.1727 40.3768 24.5303 44.2438 14.1016C46.9874 14.3881 49.6192 13.6721 50.8186 11.2891C48.9081 10.1669 46.4525 10.5266 45.0379 11.2503L48.7859 0.414062L34.1498 9.9313H29.4744V0.414062H15.4481Z" fill="white"></path></mask><g mask="url(#mask2_165_1636)"><path d="M6.91016 18.4141V30.2072H51.0216V18.4141" fill="black" fill-opacity="0.17"></path></g><mask id="mask3_165_1636" style="mask-type:luminance" maskUnits="userSpaceOnUse" x="7" y="0" width="44" height="30"><path d="M15.4481 0.414062V9.9313H10.976V14.6899H7.23177C7.21588 14.8277 7.20301 14.9657 7.18995 15.1037C6.95594 17.6963 7.40063 20.0873 8.42233 22.1317L8.76536 22.7589C8.97096 23.1348 9.21079 23.4878 9.46413 23.8322C9.71716 24.1761 9.8068 24.3665 9.96597 24.5951C12.6673 27.6853 16.6941 29.1727 21.3432 29.1727C31.639 29.1727 40.3768 24.5303 44.2438 14.1016C46.9874 14.3881 49.6192 13.6721 50.8186 11.2891C48.9081 10.1669 46.4525 10.5266 45.0379 11.2503L48.7859 0.414062L34.1498 9.9313H29.4744V0.414062H15.4481Z" fill="white"></path></mask><g mask="url(#mask3_165_1636)"><path d="M22.6131 29.1502C19.8608 27.8208 18.35 26.0138 17.5094 24.041L9.14844 24.4143L13.4173 30.2074L22.6131 29.1502Z" fill="#D4EDF1"></path></g><mask id="mask4_165_1636" style="mask-type:luminance" maskUnits="userSpaceOnUse" x="7" y="0" width="44" height="30"><path d="M15.4481 0.414062V9.9313H10.976V14.6899H7.23177C7.21588 14.8277 7.20301 14.9657 7.18995 15.1037C6.95594 17.6963 7.40063 20.0873 8.42233 22.1317L8.76536 22.7589C8.97096 23.1348 9.21079 23.4878 9.46413 23.8322C9.71716 24.1761 9.8068 24.3665 9.96597 24.5951C12.6673 27.6853 16.6941 29.1727 21.3432 29.1727C31.639 29.1727 40.3768 24.5303 44.2438 14.1016C46.9874 14.3881 49.6192 13.6721 50.8186 11.2891C48.9081 10.1669 46.4525 10.5266 45.0379 11.2503L48.7859 0.414062L34.1498 9.9313H29.4744V0.414062H15.4481Z" fill="white"></path></mask><g mask="url(#mask4_165_1636)"><path d="M45.2282 11.1594V11.1658C40.9876 16.7291 34.9051 21.589 28.3751 24.1421C22.5502 26.4196 17.4716 26.4305 13.9677 24.6012C13.5904 24.3843 13.2205 24.1436 12.8497 23.9158C10.2809 22.0885 8.83404 19.0659 8.95565 15.084H6.91016V30.2068H51.0216V10.3447H45.9397L45.2282 11.1594Z" fill="black" fill-opacity="0.085"></path></g><path d="M9.27344 24.2128C12.1529 24.3732 15.2259 24.402 17.9064 23.5469" stroke="#394D54" stroke-width="3.4" stroke-linecap="round"></path><path d="M20.7695 22.1293C20.7695 22.7539 20.272 23.2603 19.6583 23.2603C19.0445 23.2603 18.5469 22.7539 18.5469 22.1293C18.5469 21.5047 19.0445 20.998 19.6583 20.998C20.272 20.998 20.7695 21.5047 20.7695 22.1293Z" fill="#D4EDF1"></path><path d="M19.9475 21.3742C19.8505 21.4313 19.7849 21.5382 19.7849 21.6605C19.7849 21.8431 19.9303 21.9909 20.1097 21.9909C20.2326 21.9909 20.3394 21.9215 20.3946 21.8189C20.4336 21.9145 20.4553 22.0195 20.4553 22.1297C20.4553 22.577 20.0989 22.9397 19.6593 22.9397C19.2198 22.9397 18.8633 22.577 18.8633 22.1297C18.8633 21.6821 19.2198 21.3193 19.6593 21.3193C19.761 21.3193 19.858 21.3388 19.9475 21.3742Z" fill="#394D54"></path><path d="M0 18.6545H51.6993C50.5736 18.3639 48.1377 17.9713 48.5394 16.4697C46.4926 18.8804 41.5562 18.161 40.3105 16.9722C38.9231 19.0202 30.8469 18.2417 30.2836 16.6464C28.5445 18.7238 23.1552 18.7238 21.4159 16.6464C20.8524 18.2417 12.7763 19.0202 11.3889 16.9722C10.1431 18.161 5.2072 18.8804 3.16014 16.4697C3.56186 17.9713 1.12592 18.3639 0 18.6545Z" fill="#394D54"></path></g><defs><clipPath id="clip0_165_1636"><rect width="124" height="30" fill="white"></rect></clipPath></defs></svg> 