<?xml version="1.0" encoding="UTF-8"?> <svg xmlns="http://www.w3.org/2000/svg" width="130" height="50" viewBox="0 0 130 50" fill="none"><path d="M19.5344 43.6992C17.4764 42.1082 15.281 40.5828 13.7809 38.4347C10.6243 34.6468 8.19386 30.2611 6.53232 25.6524C5.52804 22.6555 5.18409 19.4426 3.88943 16.5615C2.53509 14.469 4.12151 12.1816 6.45346 11.5164C7.49169 11.3206 9.31723 10.358 7.11362 11.046C5.13802 12.4707 4.94682 9.75277 6.97265 9.58067C8.35518 9.40004 8.86412 8.2876 8.39133 7.28615C6.90726 6.33491 11.99 5.28949 9.43257 3.8701C6.76842 1.04492 13.1591 0.50106 11.5825 3.7096C11.205 6.17684 16.048 3.25741 14.9243 6.10653C16.0664 7.47478 19.2012 6.41795 19.1234 8.33747C20.7872 8.44989 21.3582 9.82582 22.92 9.93146C24.5387 10.6499 27.4731 11.2161 28.0239 13.009C26.418 14.2587 22.6993 10.4277 22.5206 13.8869C23.0057 18.9969 22.8821 24.2609 24.7843 29.1272C25.684 32.0737 27.865 34.3932 29.8348 36.6881C31.7194 38.9357 34.2723 40.5179 36.8743 41.8502C39.1567 42.9082 41.6175 43.61 44.105 44.0503C45.114 43.2918 46.8952 40.4717 48.4692 41.6609C48.5438 42.997 45.3452 44.454 48.3187 44.3063C50.0647 43.7886 51.2757 45.6335 52.7135 43.9694C54.0382 45.5116 58.2193 42.984 57.2768 46.1364C56.0023 46.9446 54.1436 46.4562 52.867 47.568C50.7622 46.5348 49.0865 48.4926 46.7564 48.245C44.1687 48.7006 41.5362 48.8844 38.9127 48.8884C34.6087 48.5542 30.2136 48.4133 26.1191 46.9404C23.8125 46.2816 21.5616 44.9907 19.5344 43.6992ZM23.1693 45.2472C25.4216 46.2046 27.6239 47.2136 30.0923 47.518C34.0083 48.0533 38.0524 48.8768 41.9825 48.1256C40.2038 47.3362 38.3649 48.4332 36.5928 47.5611C34.4675 48.0106 32.1868 47.4466 30.0262 47.1689C27.5692 46.0932 24.9177 45.3535 22.6169 43.9572C19.7418 42.925 24.1038 45.2809 24.8802 45.4717C26.6775 46.4744 22.9038 44.9577 22.3718 44.5409C20.8665 43.7109 20.6747 43.8843 22.2227 44.7272C22.5345 44.9066 22.8427 45.0945 23.1693 45.2472ZM18.8836 42.2703C21.0662 43.0649 18.874 40.7618 17.8739 40.8956C17.4308 40.14 16.181 39.6627 17.0626 39.2568C15.4767 39.7979 15.4013 37.199 14.6559 37.5703C12.9782 37.0496 14.0029 35.205 12.0045 34.0723C11.8221 32.8787 10.019 31.8434 9.44384 30.043C9.18983 29.1212 7.4067 26.4742 8.50208 28.9377C9.43475 31.3092 11.0757 33.3401 12.4413 35.3687C13.5016 37.3002 14.7537 39.3188 16.6849 40.5237C17.3358 41.1375 17.9644 42.0779 18.8836 42.2703ZM12.5963 35.4853C12.6724 35.1613 12.9954 36.1864 12.5963 35.4853V35.4853ZM21.4974 43.2228C20.8024 42.9549 21.9807 43.0101 21.4974 43.2228V43.2228ZM22.6822 43.6476C22.1413 43.9756 22.5595 43.0611 22.6822 43.6476V43.6476ZM24.1652 44.2557C23.0771 43.839 24.8712 43.5949 24.1652 44.2557V44.2557ZM26.7069 45.6481C25.3338 45.4129 27.136 45.0248 26.7069 45.6481V45.6481ZM21.8261 42.3038C20.4097 42.2942 22.9227 41.6065 21.8261 42.3038V42.3038ZM22.9386 42.8491C22.5421 43.0142 22.9075 42.4805 22.9386 42.8491V42.8491ZM28.4988 46.2602C29.3927 46.8147 33.7185 47.4755 31.0098 46.4876C30.5565 46.5815 25.9871 45.2172 28.4988 46.2602ZM19.6718 39.503C18.2843 39.0948 19.5849 39.1333 19.6718 39.503V39.503ZM22.2603 40.9858C20.862 40.6296 22.9339 40.5239 22.2603 40.9858V40.9858ZM24.4375 42.2979C22.8693 41.938 25.4043 41.9397 24.4375 42.2979V42.2979ZM18.6185 38.3754C19.6673 39.166 22.8485 38.4767 20.2248 37.9035C19.0306 37.2778 16.3392 36.8495 18.1737 38.2807L18.6185 38.3754ZM25.9122 42.751C24.0801 42.3332 26.3491 42.0194 25.9122 42.751V42.751ZM23.6959 41.0197C26.2606 41.7328 21.5392 39.4255 23.0631 40.7573L23.4008 40.9075L23.6959 41.0197ZM28.1395 43.5441C25.9456 43.2149 30.5684 43.5668 28.1395 43.5441V43.5441ZM17.6839 36.9941C17.0845 37.0314 17.589 36.5494 17.6839 36.9941V36.9941ZM32.2482 45.8094C31.4556 46.4071 32.313 45.0062 32.2482 45.8094V45.8094ZM21.829 39.4891C21.07 39.4719 21.6821 39.0662 21.829 39.4891V39.4891ZM17.9142 36.7151C16.0051 36.1112 19.3087 36.6328 17.9142 36.7151V36.7151ZM13.2767 33.7687C11.7593 32.5876 13.1032 33.1117 13.2767 33.7687V33.7687ZM25.4513 41.363C25.1959 41.0767 25.3312 41.4256 25.4513 41.363V41.363ZM33.0292 45.9338C32.6165 46.0994 33.0049 45.4962 33.0292 45.9338V45.9338ZM24.7807 40.6823C23.5916 40.5116 24.9171 40.1186 24.7807 40.6823V40.6823ZM19.1353 37.1656C17.4734 36.4763 20.1727 37.0565 19.1353 37.1656V37.1656ZM28.685 42.9982C27.1093 42.6909 30.3016 42.3687 28.685 42.9982V42.9982ZM23.7176 39.6839C25.5808 39.92 21.5007 38.4383 23.3088 39.5513L23.7176 39.6839ZM30.193 43.5974C31.9325 42.5752 31.359 45.9909 33.1442 43.8859C34.9051 42.6222 31.6235 45.4483 33.7937 44.1113C35.3632 43.0795 37.6814 44.6004 39.1459 45.0966C40.1991 45.0457 41.2229 45.9917 42.3026 45.4162C44.3809 44.866 38.2384 44.6001 39.8486 43.6239C37.9468 44.1679 36.5418 42.9753 35.606 41.778C33.4728 41.2939 31.0064 40.2219 29.9418 38.3664C29.5077 37.6697 30.5689 38.4646 29.5671 37.3258C28.2817 36.202 27.6399 34.9264 26.777 33.5604C25.7461 33.0199 25.626 31.4289 25.5218 33.5071C25.53 32.1955 24.2772 31.3127 23.9715 31.6797C23.966 30.4166 25.3122 31.0497 24.3698 30.1152C24.167 28.806 23.4991 27.4418 23.2984 25.9637C22.9865 25.2512 23.2545 23.7252 22.2339 25.3381C21.8621 27.0428 22.1105 23.2433 22.6887 24.4962C23.4476 23.2178 22.4162 23.3681 22.374 23.5457C22.8684 22.467 22.6869 20.9369 22.245 21.5206C22.5084 20.3773 22.6612 17.313 21.8507 17.856C22.342 16.6604 22.7824 12.3854 20.6497 14.0153C19.7854 14.0273 18.2887 14.3237 17.5812 14.6696C19.7995 15.8715 17.358 15.1036 16.455 14.9126C16.3374 16.0247 15.443 15.5437 14.3255 15.5546C16.1103 15.7717 13.4564 17.3488 12.4326 16.7362C11.1029 17.3608 13.5802 18.9201 12.4593 19.4022C12.597 20.129 10.4222 19.1397 10.593 20.8182C9.30209 20.2844 10.4152 22.8093 11.061 21.9554C13.2566 22.5394 12.6067 23.871 12.6626 25.1359C12.3048 25.873 10.8964 23.4034 12.3489 23.5178C11.203 21.6881 11.0813 22.8565 10.1291 23.7064C9.9076 23.7682 12.558 24.9158 10.8947 25.4833C12.358 25.7052 12.3997 26.9639 12.6976 27.7603C13.5771 28.6608 13.3971 26.7661 14.4495 27.8482C13.7835 26.8842 10.922 25.132 13.2259 25.6939C13.2136 24.7237 12.8092 23.9413 13.5151 23.9603C14.2141 22.716 12.783 27.0281 14.3586 25.4467C14.7947 25.2595 14.9028 24.2009 15.6867 25.5467C16.8254 26.6477 16.098 27.4455 14.4918 26.4374C14.7792 27.3956 16.6405 27.738 16.2907 29.2364C16.6615 30.5543 17.1803 30.0689 17.6325 29.9927C17.9873 31.2732 18.1887 30.3316 18.2055 29.7223C19.8298 30.064 19.4493 31.0077 19.9576 31.6671C21.0768 32.1636 18.3555 28.3012 20.2771 30.5057C22.2988 32.2997 21.0353 33.0486 19.221 32.7612C20.3693 32.67 20.7396 34.2871 22.1759 34.2303C23.4857 34.8427 24.3724 37.195 22.1148 36.2158C21.3318 35.5218 18.5608 34.6657 20.8241 35.9857C22.9144 36.9371 24.5746 37.5063 26.5907 38.7006C28.0335 39.713 28.6568 40.8726 29.2037 41.1021C27.991 41.6714 25.5493 40.6476 27.3624 40.3338C26.2315 40.1313 24.9595 39.5692 26.0428 40.9541C26.9639 41.71 29.3061 41.63 29.7259 41.7156C29.37 42.4864 28.7592 42.5477 29.7405 42.6075C28.6458 43.1809 30.0916 43.2697 30.193 43.5974ZM27.9544 37.3835C27.2883 36.6989 27.1161 35.4165 27.8361 36.5323C28.2053 36.6781 29.0188 38.628 27.9544 37.3835ZM35.2449 41.9354C35.257 42.2457 35.6604 41.909 35.2449 41.9354V41.9354ZM26.9027 35.7048C26.8771 34.6697 27.1436 36.5032 26.9027 35.7048V35.7048ZM26.1781 34.7465C25.3403 33.1555 27.2343 35.1971 26.1781 34.7465V34.7465ZM17.3972 28.7896C17.6394 29.617 17.8894 28.6606 17.3972 28.7896V28.7896ZM24.3857 32.5128C24.6879 31.3971 24.7409 33.449 24.3857 32.5128V32.5128ZM19.4486 29.1385C19.1005 28.5229 20.1766 29.7159 19.4486 29.1385V29.1385ZM23.6856 30.4736C22.8919 28.7257 24.2476 29.5189 23.8612 30.76L23.6856 30.4736ZM16.3787 25.6839C16.0239 25.1105 15.4369 23.428 15.6259 22.9143C15.7968 23.7508 17.4357 26.5142 16.4298 24.0591C15.3182 22.001 17.7586 24.7271 18.0096 25.2404C18.1265 25.7511 17.3237 25.1009 17.8677 26.2983C16.8758 24.935 17.2821 27.0513 16.3787 25.6839ZM14.1205 24.1544C14.2135 22.8212 14.6375 25.0687 14.1205 24.1544V24.1544ZM15.1363 24.4981C15.621 23.4918 15.9582 25.901 15.1363 24.4981V24.4981ZM12.6928 22.6402C11.8521 21.819 11.2436 21.0621 12.7321 22.1306C13.3057 22.1526 11.4579 20.4092 12.8703 21.5769C14.3555 21.8431 13.6037 23.9705 12.6928 22.6402ZM13.9763 22.6072C14.2355 23.0754 14.4646 22.1317 13.9763 22.6072V22.6072ZM14.7661 22.8561C14.0259 21.4924 15.6645 23.4278 14.7661 22.8561V22.8561ZM13.1961 21.3813C10.752 19.2434 16.2673 22.4993 13.5954 21.7777L13.1961 21.3813ZM20.1989 25.3806C19.1412 24.7572 19.9186 20.9924 20.2793 23.5673C21.3075 23.2403 20.2225 24.8971 20.9894 24.8817C20.8685 25.927 20.5254 26.3028 20.1989 25.3806ZM22.789 26.8852C22.8928 25.7506 23.0073 27.661 22.789 26.8852V26.8852ZM22.3391 26.4483C22.3512 27.0191 22.4556 25.9636 22.3391 26.4483V26.4483ZM13.6755 20.6788C12.1054 18.5495 18.2389 22.8327 14.6812 21.2189C14.3095 21.1233 13.8622 21.0892 13.6755 20.6788ZM18.6633 23.2781C18.5147 21.4852 18.9952 23.5753 18.6633 23.2781V23.2781ZM22.4502 25.6659C22.4721 26.3415 22.7433 24.6446 22.4502 25.6659V25.6659ZM13.9161 19.8662C14.8493 19.67 17.7835 21.4771 15.089 20.3824C14.7896 20.0566 14.1513 20.2046 13.9161 19.8662ZM21.9299 23.792C22.0297 21.9587 22.4871 22.6969 21.9334 24.0544L21.9299 23.792ZM14.6107 19.2282C14.991 18.68 13.6014 16.7496 14.8111 18.5358C15.3338 18.944 16.3245 19.2196 15.4498 19.3914C16.8254 20.5842 15.1142 19.7146 14.6107 19.2282ZM21.5336 23.2194C21.7652 24.4429 21.7963 21.1309 21.5336 23.2194V23.2194ZM13.8166 17.2993C13.97 17.6796 14.1071 17.1773 13.8166 17.2993V17.2993ZM15.6224 18.3557C16.0871 17.3972 16.4797 19.4246 15.6224 18.3557V18.3557ZM20.716 21.1408C20.7111 20.7726 20.8121 21.6762 20.716 21.1408V21.1408ZM20.4209 20.4987C19.714 18.7844 21.0785 21.4064 20.4209 20.4987V20.4987ZM19.9868 19.3747C19.8682 18.6663 20.3902 20.2647 19.9868 19.3747V19.3747ZM20.6933 18.246C20.2082 17.4056 21.3059 14.5429 21.4284 16.3183C20.9164 17.7017 21.2807 18.4756 21.6379 16.6201C22.2976 15.1598 21.4954 19.5018 20.6933 18.246ZM21.4193 13.9886C21.4662 14.2961 21.6308 13.7333 21.4193 13.9886V13.9886ZM20.2069 37.4703C19.9193 37.2236 20.243 37.6272 20.2069 37.4703V37.4703ZM22.7045 38.7121C24.0938 39.0625 24.0867 38.4997 22.8311 38.3325C22.1557 37.7149 20.0246 37.0599 21.932 38.2558C22.0584 38.5703 22.4575 38.563 22.7045 38.7121ZM17.7718 35.4919C18.5372 36.0528 20.6548 37.0818 18.8622 35.7054C19.4666 35.0152 17.7054 34.6478 18.2896 34.1861C16.8036 33.2924 17.1173 33.3719 18.1584 33.4C16.3725 32.6154 18.4162 32.6741 18.32 32.272C17.6313 32.1383 14.8995 31.0785 16.5066 32.3591C14.8729 31.5403 16.1173 32.6641 15.6235 32.5453C13.9529 32.0976 17.1113 33.7959 15.3582 33.3743C16.3166 34.1208 17.9379 35.2865 15.7634 34.1643C15.4769 34.5697 17.3195 35.1841 17.7718 35.4919ZM20.384 36.9669C18.8268 35.7378 23.5602 37.9729 20.384 36.9669V36.9669ZM33.756 44.9292C33.3219 45.4575 33.797 44.3099 33.756 44.9292V44.9292ZM35.1304 45.4978C35.8632 44.7998 35.1604 46.6095 36.3447 45.3269C36.3575 44.4087 36.3082 43.8664 34.9837 44.9818C34.6186 45.1808 34.4556 46.027 35.1304 45.4978ZM13.3135 32.0305C11.736 31.1654 13.0884 31.1609 13.3135 32.0305V32.0305ZM14.7811 32.9758C12.8366 32.1717 14.2361 32.0876 14.7811 32.9758V32.9758ZM23.1303 37.9249C23.9454 38.6366 26.8742 38.4471 24.1203 38.0125C23.7125 37.4198 21.5305 37.5624 23.1303 37.9249ZM34.6077 44.892C33.3921 45.3536 35.8623 43.8573 34.6077 44.892V44.892ZM37.217 46.6544C36.6762 46.7998 37.2248 46.3224 37.217 46.6544V46.6544ZM37.221 46.1895C35.8748 46.2751 38.6103 44.7427 37.221 46.1895V46.1895ZM9.70382 29.0602C8.51971 27.3996 8.96775 26.6532 7.82585 25.2972C7.60968 24.2604 5.8669 21.9074 6.92445 24.4002C7.8931 25.858 8.18094 28.1153 9.70382 29.0602ZM36.7852 45.7296C35.736 45.0223 39.3412 44.1058 36.7852 45.7296V45.7296ZM38.7363 46.4809C37.9267 46.255 40.0163 45.4007 38.7363 46.4809V46.4809ZM12.8784 30.1949C11.9324 30.1264 13.2448 29.6593 12.8784 30.1949V30.1949ZM38.3289 45.9679C39.5683 45.1825 38.0434 45.3031 38.1043 46.0402L38.3289 45.9679ZM21.5098 35.548C20.8554 35.593 21.4672 35.0177 21.5098 35.548V35.548ZM22.5492 36.1359C22.0413 36.239 22.2189 35.4794 22.5492 36.1359V36.1359ZM40.3175 46.4987C41.9053 45.3729 39.3551 46.2832 39.9843 46.712L40.3175 46.4987ZM39.7096 46.2099C38.344 46.682 41.003 45.1446 39.7096 46.2099V46.2099ZM42.8159 48.2432C41.7609 48.0582 43.6843 47.6714 42.8159 48.2432V48.2432ZM13.6749 29.8087C14.8389 30.065 18.3267 32.6264 16.2691 29.9858C15.2152 29.6792 15.8473 27.1472 14.7723 27.5953C15.4938 28.78 15.3659 29.2843 13.8511 28.5374C11.9472 27.6239 12.7812 28.9901 13.1533 29.3666C12.6462 29.4799 13.824 29.7992 13.6749 29.8087ZM8.37148 25.6919C8.57988 24.8447 6.45262 21.0312 7.36696 23.7811C7.69701 24.3571 7.66345 25.4488 8.37148 25.6919ZM18.1055 31.5906C17.5061 31.0979 18.077 31.5209 18.1055 31.5906V31.5906ZM19.5816 31.9282C17.95 31.5638 19.5808 31.0308 19.5816 31.9282V31.9282ZM32.3729 39.8541C31.4085 39.8399 32.1289 39.2409 32.3729 39.8541V39.8541ZM32.9871 40.2951C32.6327 40.3614 32.8964 39.952 32.9871 40.2951V40.2951ZM38.0571 43.4341C37.4486 43.3888 38.5448 43.08 38.0571 43.4341V43.4341ZM11.0206 26.3567C9.5262 25.9782 12.4153 25.8259 11.0206 26.3567V26.3567ZM31.2468 38.8815C30.3577 39.1017 31.2313 37.994 31.2468 38.8815V38.8815ZM10.4695 25.0945C9.64071 24.8986 11.3654 24.797 10.4695 25.0945V25.0945ZM13.0699 26.3326C12.7949 26.443 13.0537 26.0409 13.0699 26.3326V26.3326ZM44.7875 45.4498C45.9396 45.2202 48.5649 46.0261 48.9892 45.1496C47.5902 45.1162 44.1489 44.1794 43.9861 45.3731L44.2923 45.4205L44.7875 45.4498ZM13.8964 26.5373C13.1829 26.5038 13.9165 25.638 13.8964 26.5373V26.5373ZM7.05922 21.8756C5.87826 21.6163 6.74872 20.1621 7.05922 21.8756V21.8756ZM8.68965 22.2784C7.19732 21.7833 8.70968 21.7282 8.68965 22.2784V22.2784ZM9.62139 22.7282C9.35206 22.5138 9.41057 22.9991 9.62139 22.7282V22.7282ZM15.484 26.4248C14.8306 26.2402 15.76 26.1756 15.484 26.4248V26.4248ZM9.0008 21.7138C7.11241 21.5199 8.84321 20.4196 9.0008 21.7138V21.7138ZM5.65818 19.582C5.33243 19.8073 5.61064 18.9847 5.65818 19.582V19.582ZM6.15538 19.2129C5.72849 19.303 6.07426 18.5047 6.15538 19.2129V19.2129ZM8.90256 20.8247C10.0642 20.3762 6.7866 19.897 8.6652 20.7399L8.90256 20.8247ZM45.6693 43.1467C44.7243 42.9395 46.4128 42.4766 45.6693 43.1467V43.1467ZM50.1109 45.4097C49.3608 45.5237 50.4089 44.5434 50.1109 45.4097V45.4097ZM9.18332 19.4094C8.26236 19.5758 9.30569 18.5714 9.18332 19.4094V19.4094ZM5.27474 16.8355C5.06478 15.6524 5.0935 13.5757 7.10185 14.2775C4.42103 14.8007 8.95727 17.5526 8.38443 15.3799C9.51165 15.4341 10.5895 14.725 9.99798 15.8011C12.2189 15.56 13.7587 13.667 15.904 13.9323C17.5751 13.7149 19.4022 13.5501 21.203 12.8889C22.6836 12.7841 24.1089 11.2172 23.2973 10.2885C21.2782 10.1206 19.1646 10.3689 16.9329 10.8049C14.4599 11.3102 12.2136 12.2703 9.71844 12.6824C7.28634 13.0035 10.2076 13.5671 9.51098 13.6927C8.24188 14.1255 11.0245 14.4174 9.34645 14.8737C8.31013 14.68 7.23145 14.33 7.67412 13.2566C5.34438 13.5537 3.29721 14.5041 5.13785 16.8344L5.27474 16.8355ZM10.8886 14.0252C11.4348 12.0473 13.815 15.6528 11.7839 14.288C11.5413 14.1095 11.1423 13.9639 10.8886 14.0252ZM10.9948 13.0663C11.4139 13.39 11.7832 12.489 10.9948 13.0663V13.0663ZM11.9959 13.0819C12.0671 12.1718 14.2875 13.5637 12.362 13.4096L11.9959 13.0819ZM13.3653 12.5408C13.509 13.0516 13.8653 11.9664 13.3653 12.5408V12.5408ZM13.7156 12.3102C14.5482 11.3268 18.4311 11.6826 15.589 12.2143C14.8272 11.6506 14.2432 12.5467 13.7156 12.3102ZM18.7828 11.5424C18.6561 8.85626 21.3002 12.497 18.7828 11.5424V11.5424ZM20.2205 11.5347C20.7462 10.1808 22.2604 10.9914 20.4638 11.2626C20.5028 11.4067 20.4111 11.9616 20.2205 11.5347ZM8.61635 18.7145C6.94898 17.8943 10.187 17.7692 8.61635 18.7145V18.7145ZM9.77765 19.0317C8.58113 18.7982 10.3283 18.4562 9.77765 19.0317V19.0317ZM6.35592 16.6448C5.29392 16.3871 7.25337 15.9671 6.35592 16.6448V16.6448ZM52.7327 45.1621C52.0467 45.5164 52.7586 44.3759 52.7327 45.1621V45.1621ZM48.0202 42.0012C47.4146 42.0801 48.1542 41.096 48.0202 42.0012V42.0012ZM54.0285 45.4669C55.2833 45.4711 57.8304 45.0839 55.1003 45.0851C54.6718 45.1508 52.6039 45.1367 54.0285 45.4669ZM10.7992 18.4769C11.8146 18.4083 12.3879 17.3759 10.6028 17.4352C7.83604 17.1537 13.0438 18.3664 10.2478 18.0196C9.87214 18.2642 10.7773 18.5446 10.7992 18.4769ZM11.6935 18.9218C11.3795 19.2623 11.5875 18.281 11.6935 18.9218V18.9218ZM12.7544 16.1413C12.1446 15.9977 13.1951 15.6041 12.7544 16.1413V16.1413ZM9.37718 10.5926C11.1895 9.98661 13.6679 9.30565 14.5236 10.891C13.6527 9.86075 14.1721 8.84652 14.9947 10.3528C16.1578 11.8769 16.74 9.65964 15.9836 9.14844C16.8456 10.2013 17.8262 10.6988 16.5608 9.21499C17.9358 7.58917 13.8074 9.42788 12.869 9.40937C12.4175 9.60855 8.20778 10.4646 9.37718 10.5926ZM10.4393 8.59322C11.4729 7.82644 14.014 9.04933 12.3834 7.83118C12.224 7.69276 8.81233 8.75492 10.4393 8.59322ZM14.2075 8.74613C15.4171 8.77647 13.6857 7.14883 15.1272 7.88636C14.8904 7.12619 13.4489 6.98388 12.7441 6.68017C12.3455 7.37518 13.5555 8.75547 14.2075 8.74613ZM11.1 5.38406C10.3666 5.66675 11.5185 4.82644 11.1 5.38406V5.38406ZM12.6401 5.74638C14.5895 5.49224 12.1432 4.92123 12.2473 5.72595L12.6401 5.74638ZM9.76446 3.53469C8.39187 1.77352 12.3458 3.83074 10.9513 1.98673C9.77751 1.06805 8.64961 3.02056 9.76446 3.53469ZM27.3795 12.8605C28.009 11.7635 24.7804 11.3819 26.9553 12.4717C27.1556 12.5375 27.1103 12.9363 27.3795 12.8605Z" fill="#323232"></path><path d="M57.0946 5.29491C56.8694 6.16733 56.7303 7.63217 56.6773 9.68944C56.6773 10.0931 56.4918 10.2949 56.1209 10.2949C55.75 10.2949 55.4917 10.1191 55.346 9.76756C54.9485 8.81706 54.571 8.153 54.2133 7.77537C53.7894 7.33269 53.2264 7.06576 52.5243 6.97459C51.7692 6.85743 49.8881 6.79884 46.8809 6.79881C46.1921 6.79884 45.7417 6.87045 45.5297 7.01366C45.3972 7.10482 45.331 7.30014 45.331 7.59959V16.4472C45.331 16.7467 45.5231 16.89 45.9073 16.8769C47.0863 16.8639 48.7952 16.7858 51.034 16.6426C51.4711 16.5905 51.7659 16.4505 51.9182 16.2226C52.0705 15.9948 52.2196 15.4056 52.3653 14.4551C52.458 13.9342 52.7693 13.7324 53.2993 13.8496C53.7496 13.9408 53.9417 14.1426 53.8755 14.4551C53.5046 16.2259 53.3853 18.5306 53.5178 21.3691C53.5311 21.7077 53.3125 21.89 52.8621 21.916C52.4912 21.9551 52.2593 21.7598 52.1666 21.3301C51.8222 19.7025 51.183 18.8333 50.2491 18.7226C49.3151 18.612 47.795 18.5566 45.6887 18.5566C45.4502 18.5566 45.331 18.6413 45.331 18.8105V27.5996C45.331 28.2506 45.5761 28.6933 46.0662 28.9277C46.4504 29.123 47.2784 29.2988 48.5501 29.4551C49.1992 29.5202 49.484 29.8001 49.4046 30.2949C49.3251 30.7246 48.7422 30.8939 47.6559 30.8027C44.5163 30.5553 41.9265 30.5683 39.8864 30.8418C39.3167 30.9199 39.0319 30.692 39.0319 30.1582C39.0319 29.8196 39.3167 29.6243 39.8864 29.5722C41.1846 29.429 41.8337 28.3092 41.8337 26.2129V9.49412C41.8337 8.63477 41.6781 7.97396 41.3668 7.5117C41.0554 7.04949 40.4759 6.62956 39.6281 6.25194C39.0982 6.01759 38.8995 5.69858 39.0319 5.29491C39.0982 5.04754 39.2041 4.91082 39.3499 4.88475C39.4823 4.84571 39.8334 4.87175 40.403 4.96287C41.2376 5.09311 43.2048 5.15821 46.3047 5.15819C49.9609 5.15821 53.1204 5.08009 55.7831 4.92381C56.6707 4.87175 57.1145 4.94337 57.1145 5.13866C57.1145 5.19076 57.1078 5.24285 57.0946 5.29491Z" fill="#323232"></path><path d="M70.009 30.1191C70.009 30.64 69.7109 30.8678 69.1148 30.8027C67.2867 30.6335 65.0214 30.6595 62.319 30.8809C61.7758 30.9329 61.4413 30.9199 61.3155 30.8418C61.1896 30.7637 61.1267 30.5488 61.1267 30.1973C61.1267 29.8848 61.4877 29.6211 62.2097 29.4063C62.9316 29.1914 63.2926 28.5501 63.2926 27.4824V9.80664C63.2926 8.75198 63.137 7.97724 62.8257 7.48242C62.5143 6.98765 61.9679 6.60354 61.1863 6.33008C60.7756 6.18687 60.5703 5.98505 60.5703 5.72461C60.5703 5.33401 60.8684 5.04104 61.4645 4.8457C62.3653 4.55927 63.2992 4.11656 64.2663 3.51758C65.0611 3.04886 65.5645 2.81448 65.7765 2.81445C66.2666 2.81448 66.5117 3.14651 66.5117 3.81055C66.5117 3.75849 66.4852 4.40953 66.4322 5.76367C66.3925 7.05276 66.3792 8.32229 66.3925 9.57227L66.472 27.0137C66.472 27.8079 66.6707 28.3841 67.0681 28.7422C67.4655 29.1003 68.1477 29.3379 69.1148 29.4551C69.7109 29.5202 70.009 29.7415 70.009 30.1191Z" fill="#323232"></path><path d="M88.1343 28.8105C88.1343 29.084 87.6276 29.4974 86.6142 30.0508C85.6008 30.6042 84.7894 30.8809 84.18 30.8809C83.6634 30.8809 83.2063 30.6335 82.8089 30.1387C82.4115 29.6439 82.1333 29.3965 81.9743 29.3965C81.8551 29.3965 81.2259 29.6634 80.0866 30.1973C78.9473 30.7311 77.8014 30.998 76.6489 30.998C75.5627 30.998 74.6552 30.6855 73.9266 30.0605C73.1318 29.3704 72.7344 28.4329 72.7344 27.248C72.7344 24.9955 75.3573 23.3809 80.6033 22.4043C81.5041 22.235 81.9611 21.877 81.9743 21.3301L82.0141 20.0801C82.0936 17.9447 81.1331 16.877 79.1328 16.877C78.5632 16.877 78.0233 17.3783 77.5133 18.3809C77.0033 19.3835 76.2714 19.9238 75.3176 20.002C74.2313 20.1061 73.6882 19.6569 73.6882 18.6543C73.6882 18.0293 74.4963 17.3001 76.1124 16.4668C77.8081 15.5944 79.4375 15.1582 81.0007 15.1582C83.6899 15.1582 85.0212 16.4147 84.9947 18.9277L84.9152 26.9746C84.902 27.821 85.2663 28.2441 86.0082 28.2441C86.1539 28.2441 86.432 28.2116 86.8427 28.1465C87.2534 28.0814 87.4918 28.0488 87.5581 28.0488C87.9422 28.0488 88.1343 28.3027 88.1343 28.8105ZM82.0141 24.3574C82.0273 24.0319 81.9512 23.8171 81.7856 23.7129C81.62 23.6087 81.3583 23.5892 81.0007 23.6543C77.8081 24.2142 76.2118 25.2363 76.2118 26.7207C76.2118 28.2181 77.0397 28.9668 78.6957 28.9668C79.358 28.9668 80.0402 28.8431 80.7424 28.5957C81.5637 28.3092 81.9743 27.9642 81.9743 27.5605L82.0141 24.3574Z" fill="#323232"></path><path d="M102.956 26.4863C102.956 27.8665 102.416 28.9635 101.336 29.7773C100.257 30.5911 98.7828 30.998 96.9149 30.998C95.6697 30.998 94.4244 30.8678 93.1792 30.6074C92.1061 30.373 91.4835 30.1582 91.3113 29.9629C91.2053 29.7806 91.1523 28.8887 91.1523 27.2871C91.1523 26.597 91.3113 26.2389 91.6292 26.2129C91.9472 26.1738 92.2187 26.3431 92.444 26.7207C93.4375 28.4264 95.0404 29.2793 97.2527 29.2793C99.1206 29.2793 100.055 28.6413 100.055 27.3652C100.055 26.8053 99.8425 26.3366 99.4186 25.959C98.955 25.5293 98.0542 25.028 96.7162 24.4551C94.7821 23.6087 93.4905 22.8665 92.8414 22.2285C92.1393 21.5514 91.7882 20.64 91.7882 19.4941C91.7882 18.0879 92.338 16.9942 93.4375 16.2129C94.4575 15.4577 95.822 15.0801 97.5309 15.0801C98.6039 15.0801 99.5842 15.1647 100.472 15.334C101.426 15.5033 101.922 15.7116 101.962 15.959C102.068 16.6882 102.287 17.7429 102.618 19.123C102.658 19.2923 102.472 19.429 102.061 19.5332C101.624 19.6244 101.333 19.5527 101.187 19.3184C100.141 17.6387 98.8159 16.7988 97.213 16.7988C95.3981 16.7988 94.4907 17.3718 94.4907 18.5176C94.4907 19.1556 94.7357 19.6634 95.2259 20.041C95.663 20.3665 96.6897 20.8744 98.3059 21.5645C100.002 22.2806 101.154 22.9251 101.763 23.498C102.558 24.2402 102.956 25.2363 102.956 26.4863Z" fill="#323232"></path><path d="M126.006 30.002C126.006 30.4577 125.694 30.6986 125.072 30.7246C124.145 30.7376 122.932 30.8027 121.435 30.9199C120.694 31.0632 120.164 30.972 119.846 30.6465C117.753 28.4329 115.978 26.1152 114.52 23.6934C114.401 23.485 114.249 23.3809 114.063 23.3809C113.838 23.3809 113.447 23.5762 112.891 23.9668C112.268 24.3053 111.957 24.7871 111.957 25.4121C111.957 25.8548 111.97 26.4928 111.997 27.3262C112.023 28.1595 112.235 28.7064 112.633 28.9668C112.911 29.1491 113.553 29.2923 114.56 29.3965C115.183 29.4746 115.494 29.7025 115.494 30.0801C115.494 30.3796 115.444 30.5651 115.345 30.6367C115.246 30.7083 114.984 30.7246 114.56 30.6855C113.235 30.5684 110.997 30.6335 107.844 30.8809C107.049 30.946 106.618 30.8483 106.552 30.5879C106.526 30.4967 106.512 30.3665 106.512 30.1973C106.512 29.7936 106.916 29.4876 107.725 29.2793C108.453 29.097 108.817 28.2572 108.817 26.7598V9.68945C108.817 8.62177 108.711 7.87958 108.499 7.46289C108.208 6.92906 107.599 6.51239 106.671 6.21289C106.234 6.06969 106.016 5.86786 106.016 5.60742C106.016 5.22984 106.327 4.93687 106.95 4.72852C107.943 4.40302 108.89 3.9538 109.791 3.38086C110.52 2.91214 110.97 2.67776 111.142 2.67773C111.685 2.67776 111.957 3.0163 111.957 3.69336C111.957 3.60224 111.95 4.24677 111.937 5.62695C111.924 6.5775 111.917 7.85354 111.917 9.45508L111.957 21.6816C111.957 22.0202 112.05 22.1895 112.235 22.1895C112.434 22.1895 112.739 22.0202 113.149 21.6816C114.249 20.8353 115.6 19.7285 117.203 18.3613C117.521 18.0358 117.68 17.7754 117.68 17.5801C117.68 17.2285 117.143 16.9811 116.07 16.8379C115.607 16.7858 115.388 16.5319 115.415 16.0762C115.454 15.6205 115.686 15.4251 116.11 15.4902C117.064 15.6205 118.455 15.6921 120.283 15.7051C121.555 15.7181 122.82 15.7246 124.078 15.7246C124.489 15.7376 124.694 15.9785 124.694 16.4473C124.694 16.89 124.37 17.1309 123.721 17.1699C122.701 17.209 121.74 17.4369 120.839 17.8535C119.581 18.4134 118.236 19.3965 116.806 20.8027C116.7 20.8809 116.647 20.9785 116.647 21.0957C116.647 21.278 116.872 21.7142 117.322 22.4043C118.978 24.8783 120.541 26.7467 122.012 28.0098C122.952 28.804 123.833 29.2012 124.655 29.2012C125.264 29.2012 125.641 29.2435 125.787 29.3281C125.933 29.4128 126.006 29.6374 126.006 30.002Z" fill="#323232"></path><path d="M72.7313 36.8083C72.7313 36.8539 72.6424 36.9007 72.4647 36.9488C72.3488 36.9792 72.2509 37.083 72.1711 37.2602C71.7074 38.273 71.2927 39.0895 70.9269 39.7098C70.9192 39.725 70.8999 39.7313 70.869 39.7288C70.8406 39.7263 70.8213 39.7174 70.811 39.7022C70.7492 39.6111 70.5908 39.2933 70.3358 38.749C70.1014 38.2477 69.9751 37.997 69.9571 37.997C69.9288 37.997 69.791 38.2388 69.5437 38.7224C69.2629 39.2617 69.0968 39.5693 69.0453 39.6452C69.0375 39.663 69.0195 39.6705 68.9912 39.668C68.9628 39.668 68.9409 39.6579 68.9255 39.6376C68.7374 39.349 68.3047 38.5591 67.6273 37.2678C67.55 37.1159 67.4637 37.0197 67.3684 36.9792C67.2035 36.9083 67.1211 36.8564 67.1211 36.8235C67.1211 36.7248 67.1765 36.6805 67.2872 36.6906C67.7844 36.7412 68.2197 36.7311 68.5932 36.6602C68.6782 36.645 68.7207 36.6729 68.7207 36.7438C68.7207 36.8425 68.6627 36.9058 68.5468 36.9336C68.3949 36.9691 68.3189 37.0248 68.3189 37.1007C68.3189 37.1488 68.3369 37.2197 68.373 37.3134C68.4657 37.5489 68.6048 37.8476 68.7903 38.2097C68.9757 38.5717 69.0839 38.7528 69.1148 38.7528C69.1354 38.7528 69.2449 38.5641 69.4432 38.1869C69.6416 37.8097 69.7407 37.6008 69.7407 37.5603C69.7407 37.4615 69.7073 37.3552 69.6403 37.2413C69.5604 37.0742 69.4677 36.9741 69.3621 36.9412C69.1921 36.883 69.1071 36.826 69.1071 36.7703C69.1071 36.6691 69.165 36.6273 69.281 36.645C69.6776 36.6982 70.0975 36.6881 70.5405 36.6146C70.6255 36.5994 70.6681 36.6248 70.6681 36.6906C70.6681 36.7868 70.6049 36.8463 70.4787 36.8691C70.3293 36.8969 70.2546 36.9716 70.2546 37.0931C70.2546 37.1514 70.2714 37.2197 70.3049 37.2982C70.7015 38.2527 70.9308 38.73 70.9926 38.73C71.0158 38.73 71.1188 38.5439 71.3017 38.1717C71.4975 37.7742 71.634 37.4539 71.7113 37.2109C71.7164 37.1982 71.719 37.1843 71.719 37.1691C71.719 37.0602 71.6327 36.9754 71.4601 36.9146C71.3262 36.8716 71.2592 36.8235 71.2592 36.7703C71.2592 36.6817 71.3017 36.6475 71.3867 36.6678C71.5026 36.6931 71.7113 36.7121 72.0126 36.7248C72.296 36.7349 72.4827 36.7336 72.5729 36.721C72.6785 36.7083 72.7313 36.7374 72.7313 36.8083Z" fill="#323232"></path><path d="M76.1556 38.9618C76.1556 39.0707 76.0062 39.2061 75.7074 39.3682C75.3674 39.5479 75.0184 39.6378 74.6603 39.6378C74.2714 39.6378 73.9442 39.5125 73.6789 39.2618C73.3956 38.996 73.2539 38.6415 73.2539 38.1985C73.2539 37.6972 73.4123 37.2946 73.7292 36.9908C74.0254 36.7072 74.3886 36.5654 74.8187 36.5654C75.0738 36.5654 75.312 36.6452 75.5335 36.8047C75.7319 36.9465 75.8633 37.1085 75.9276 37.2908C75.9508 37.3541 75.9856 37.3895 76.032 37.3971C76.0989 37.4098 76.1324 37.4541 76.1324 37.5301C76.1324 37.6339 76.0062 37.7225 75.7538 37.7959L73.9726 38.3162C74.0885 38.9188 74.4027 39.2201 74.9153 39.2201C75.2116 39.2201 75.549 39.1137 75.9276 38.901C75.9843 38.8681 76.0397 38.8517 76.0938 38.8517C76.135 38.8517 76.1556 38.8884 76.1556 38.9618ZM75.2399 37.4389C75.2399 37.2997 75.1826 37.1775 75.068 37.0724C74.9533 36.9674 74.8123 36.9148 74.6449 36.9148C74.1709 36.9148 73.9339 37.2503 73.9339 37.9212V38.0124L74.9849 37.701C75.1549 37.6529 75.2399 37.5655 75.2399 37.4389Z" fill="#323232"></path><path d="M80.059 37.8949C80.059 38.3962 79.8812 38.8164 79.5258 39.1557C79.1858 39.4823 78.7813 39.6456 78.3125 39.6456C78.0472 39.6456 77.7703 39.6026 77.4818 39.5165C77.2036 39.4329 77.0633 39.357 77.0607 39.2886C77.0581 39.2304 77.0593 39.0266 77.0645 38.6772C77.0723 38.2493 77.0761 37.9379 77.0761 37.7429C77.0761 37.4493 77.0736 37.0233 77.0684 36.465C77.0633 35.9067 77.0607 35.5365 77.0607 35.3542C77.0607 35.1719 77.0323 35.0466 76.9757 34.9782C76.9242 34.9174 76.8121 34.8693 76.6395 34.8339C76.5725 34.8111 76.5391 34.7693 76.5391 34.7086C76.5391 34.6554 76.5893 34.6111 76.6898 34.5756C76.834 34.525 77.013 34.4402 77.2268 34.3212C77.3968 34.2275 77.5024 34.1807 77.5436 34.1807C77.6235 34.1807 77.6634 34.2452 77.6634 34.3743C77.6634 34.3845 77.6596 34.5161 77.6518 34.7693C77.6467 35.0073 77.6454 35.2491 77.648 35.4947L77.6557 36.8087C77.6557 36.9328 77.6995 36.9682 77.7871 36.915C78.0962 36.7403 78.4181 36.653 78.753 36.653C79.1394 36.653 79.4536 36.7676 79.6958 36.9967C79.9379 37.2258 80.059 37.5252 80.059 37.8949ZM79.4408 38.2329C79.4408 37.886 79.3429 37.6012 79.1471 37.3784C78.9617 37.1682 78.7363 37.0632 78.471 37.0632C78.2881 37.0632 78.1078 37.11 77.93 37.2037C77.7523 37.2973 77.6634 37.3961 77.6634 37.4999V38.5177C77.6634 39.0063 77.9378 39.2507 78.4864 39.2507C78.7723 39.2507 79.0029 39.1601 79.178 38.9791C79.3532 38.7981 79.4408 38.5493 79.4408 38.2329Z" fill="#323232"></path><path d="M86.3115 39.2279C86.3218 39.2506 86.3269 39.2671 86.3269 39.2772C86.3269 39.3304 86.1956 39.4178 85.9328 39.5393C85.6289 39.6785 85.4499 39.7482 85.3958 39.7482C85.3494 39.7482 85.2959 39.6716 85.2354 39.5184C85.1749 39.3652 85.133 39.2886 85.1098 39.2886C85.1124 39.2886 84.9662 39.3551 84.6713 39.488C84.3764 39.6209 84.1529 39.6874 84.0009 39.6874C83.6609 39.6874 83.366 39.5671 83.1161 39.3266C82.8147 39.0405 82.6641 38.6392 82.6641 38.1227C82.6641 37.6898 82.8418 37.3163 83.1973 37.0024C83.5115 36.7264 83.8322 36.5884 84.1593 36.5884C84.3912 36.5884 84.6681 36.6176 84.9901 36.6758C85.0905 36.6935 85.1407 36.6644 85.1408 36.5884V35.2896C85.1407 35.1428 85.1047 35.039 85.0326 34.9782C84.9862 34.9377 84.8767 34.8896 84.7041 34.8339C84.6217 34.8035 84.5805 34.7541 84.5805 34.6858C84.5805 34.6225 84.6359 34.5756 84.7466 34.5452C84.8986 34.4997 85.0802 34.4237 85.2914 34.3174C85.4666 34.2262 85.5748 34.1807 85.616 34.1807C85.7113 34.1807 85.759 34.2452 85.759 34.3743C85.759 34.3718 85.7551 34.4978 85.7474 34.7522C85.7396 35.0067 85.7358 35.2542 85.7358 35.4947V38.9468C85.7358 39.0911 85.8015 39.1633 85.9328 39.1633C85.9818 39.1633 86.0475 39.1557 86.1299 39.1405C86.22 39.1253 86.2806 39.1544 86.3115 39.2279ZM85.1176 38.8519V37.4923C85.1176 37.3809 85.0171 37.2657 84.8162 37.1467C84.6024 37.0201 84.3706 36.9568 84.1207 36.9568C83.5824 36.9568 83.3132 37.2834 83.3132 37.9366C83.3132 38.286 83.4201 38.5848 83.6339 38.8329C83.8477 39.081 84.0988 39.2051 84.3873 39.2051C84.5187 39.2051 84.6732 39.162 84.851 39.076C85.0287 38.9899 85.1176 38.9152 85.1176 38.8519Z" fill="#323232"></path><path d="M89.6634 38.9618C89.6634 39.0707 89.514 39.2061 89.2152 39.3682C88.8752 39.5479 88.5262 39.6378 88.1681 39.6378C87.7792 39.6378 87.452 39.5125 87.1867 39.2618C86.9034 38.996 86.7617 38.6415 86.7617 38.1985C86.7617 37.6972 86.9201 37.2946 87.237 36.9908C87.5332 36.7072 87.8964 36.5654 88.3266 36.5654C88.5816 36.5654 88.8198 36.6452 89.0414 36.8047C89.2397 36.9465 89.3711 37.1085 89.4355 37.2908C89.4586 37.3541 89.4934 37.3895 89.5398 37.3971C89.6068 37.4098 89.6402 37.4541 89.6402 37.5301C89.6402 37.6339 89.514 37.7225 89.2616 37.7959L87.4804 38.3162C87.5963 38.9188 87.9106 39.2201 88.4231 39.2201C88.7194 39.2201 89.0568 39.1137 89.4355 38.901C89.4921 38.8681 89.5475 38.8517 89.6016 38.8517C89.6428 38.8517 89.6634 38.8884 89.6634 38.9618ZM88.7477 37.4389C88.7477 37.2997 88.6904 37.1775 88.5758 37.0724C88.4611 36.9674 88.3201 36.9148 88.1527 36.9148C87.6787 36.9148 87.4417 37.2503 87.4417 37.9212V38.0124L88.4927 37.701C88.6627 37.6529 88.7477 37.5655 88.7477 37.4389Z" fill="#323232"></path><path d="M93.9 36.8008C93.9 36.8489 93.8189 36.8983 93.6566 36.9489C93.551 36.9793 93.4608 37.0831 93.3861 37.2603C93.2599 37.5591 93.0397 37.9971 92.7254 38.5743C92.4601 39.063 92.2553 39.42 92.1111 39.6453C92.1033 39.663 92.0866 39.6706 92.0608 39.6681C92.0351 39.6656 92.0158 39.6554 92.0029 39.6377C91.4568 38.8655 90.9893 38.0756 90.6003 37.2679C90.5179 37.0957 90.4368 36.9995 90.3569 36.9793C90.2075 36.9211 90.1328 36.8691 90.1328 36.8236C90.1328 36.7223 90.183 36.678 90.2835 36.6906C90.4406 36.7109 90.6737 36.716 90.9828 36.7058C91.2816 36.6983 91.4916 36.6831 91.6126 36.6603C91.6873 36.6451 91.7247 36.6729 91.7247 36.7438C91.7247 36.8324 91.6719 36.8894 91.5663 36.9147C91.3654 36.9679 91.2649 37.0363 91.2649 37.1198C91.2649 37.1578 91.2778 37.2122 91.3035 37.2831C91.3911 37.4958 91.5482 37.8028 91.7749 38.2041C92.0016 38.6053 92.1304 38.806 92.1613 38.806C92.1845 38.806 92.294 38.6136 92.4897 38.2287C92.6958 37.8211 92.8439 37.492 92.9341 37.2413C92.9469 37.2135 92.9534 37.1856 92.9534 37.1578C92.9534 37.059 92.8916 36.978 92.7679 36.9147C92.6469 36.8666 92.5863 36.821 92.5863 36.778C92.5863 36.6894 92.6263 36.6527 92.7061 36.6679C92.8091 36.6856 92.9907 36.7008 93.2509 36.7134C93.5111 36.7261 93.6798 36.7286 93.7571 36.721C93.8524 36.7033 93.9 36.7299 93.9 36.8008Z" fill="#323232"></path><path d="M97.3275 38.9618C97.3275 39.0707 97.1781 39.2061 96.8793 39.3682C96.5393 39.5479 96.1902 39.6378 95.8322 39.6378C95.4432 39.6378 95.1161 39.5125 94.8508 39.2618C94.5675 38.996 94.4258 38.6415 94.4258 38.1985C94.4258 37.6972 94.5842 37.2946 94.901 36.9908C95.1972 36.7072 95.5604 36.5654 95.9906 36.5654C96.2456 36.5654 96.4839 36.6452 96.7054 36.8047C96.9038 36.9465 97.0351 37.1085 97.0995 37.2908C97.1227 37.3541 97.1575 37.3895 97.2038 37.3971C97.2708 37.4098 97.3043 37.4541 97.3043 37.5301C97.3043 37.6339 97.1781 37.7225 96.9257 37.7959L95.1444 38.3162C95.2604 38.9188 95.5746 39.2201 96.0872 39.2201C96.3834 39.2201 96.7209 39.1137 97.0995 38.901C97.1562 38.8681 97.2116 38.8517 97.2657 38.8517C97.3069 38.8517 97.3275 38.8884 97.3275 38.9618ZM96.4118 37.4389C96.4118 37.2997 96.3545 37.1775 96.2398 37.0724C96.1252 36.9674 95.9842 36.9148 95.8167 36.9148C95.3428 36.9148 95.1058 37.2503 95.1058 37.9212V38.0124L96.1568 37.701C96.3268 37.6529 96.4118 37.5655 96.4118 37.4389Z" fill="#323232"></path><path d="M99.7142 39.4899C99.7142 39.5912 99.6562 39.6355 99.5403 39.6228C99.1849 39.5899 98.7444 39.595 98.2189 39.638C98.1133 39.6482 98.0483 39.6456 98.0238 39.6304C97.9993 39.6152 97.9871 39.5735 97.9871 39.5051C97.9871 39.4443 98.0573 39.3931 98.1977 39.3513C98.3381 39.3095 98.4082 39.1848 98.4082 38.9772V35.5403C98.4082 35.3352 98.378 35.1845 98.3174 35.0883C98.2569 34.9921 98.1507 34.9174 97.9987 34.8643C97.9188 34.8364 97.8789 34.7972 97.8789 34.7465C97.8789 34.6706 97.9369 34.6136 98.0528 34.5756C98.2279 34.5199 98.4095 34.4339 98.5976 34.3174C98.7521 34.2262 98.85 34.1807 98.8912 34.1807C98.9865 34.1807 99.0342 34.2452 99.0342 34.3744C99.0342 34.3642 99.029 34.4908 99.0187 34.7541C99.011 35.0048 99.0084 35.2516 99.011 35.4947L99.0265 38.8861C99.0265 39.0405 99.0651 39.1525 99.1424 39.2222C99.2197 39.2918 99.3523 39.338 99.5404 39.3608C99.6563 39.3735 99.7142 39.4165 99.7142 39.4899Z" fill="#323232"></path><path d="M103.46 38.07C103.46 38.5105 103.294 38.8833 102.961 39.1884C102.629 39.4935 102.217 39.6461 101.725 39.6461C101.233 39.6461 100.844 39.5119 100.558 39.2435C100.282 38.9802 100.145 38.6321 100.145 38.1991C100.145 37.751 100.318 37.3737 100.666 37.0674C101.004 36.7712 101.407 36.623 101.876 36.623C102.378 36.623 102.769 36.756 103.05 37.0218C103.323 37.2801 103.46 37.6295 103.46 38.07ZM102.78 38.3016C102.78 37.9042 102.682 37.5813 102.486 37.3332C102.295 37.0927 102.053 36.9724 101.76 36.9724C101.487 36.9724 101.264 37.0668 101.091 37.2554C100.919 37.444 100.832 37.6738 100.832 37.9447C100.832 38.3801 100.933 38.7194 101.134 38.9625C101.319 39.1853 101.561 39.2967 101.86 39.2967C102.143 39.2967 102.367 39.2042 102.532 39.0194C102.697 38.8346 102.78 38.5953 102.78 38.3016Z" fill="#323232"></path><path d="M107.497 37.9671C107.497 38.4406 107.335 38.8425 107.012 39.1729C106.689 39.5033 106.312 39.6685 105.882 39.6685C105.621 39.6685 105.37 39.6229 105.128 39.5318C105.102 39.5217 105.09 39.5837 105.09 39.7179V40.861C105.09 41.0458 105.243 41.1648 105.549 41.218C105.691 41.2433 105.781 41.2667 105.818 41.2882C105.855 41.3098 105.874 41.3458 105.874 41.3965C105.874 41.4826 105.816 41.5218 105.7 41.5142C105.159 41.4788 104.684 41.4914 104.274 41.5522C104.189 41.5649 104.136 41.5649 104.116 41.5522C104.095 41.5395 104.085 41.5053 104.085 41.4497C104.085 41.4066 104.158 41.3547 104.305 41.2939C104.431 41.2433 104.495 41.1218 104.495 40.9294V37.5798C104.495 37.3088 104.419 37.1392 104.267 37.0709C104.086 36.9924 103.996 36.9278 103.996 36.8772C103.996 36.8215 104.049 36.7797 104.155 36.7518C104.291 36.7189 104.431 36.6607 104.576 36.5771C104.697 36.5088 104.77 36.4746 104.796 36.4746C104.873 36.4746 104.936 36.5442 104.985 36.6835C105.057 36.886 105.105 36.9873 105.128 36.9873C105.133 36.9873 105.244 36.9278 105.46 36.8088C105.697 36.6797 105.929 36.6151 106.156 36.6151C106.524 36.6151 106.828 36.7177 107.068 36.9227C107.354 37.1633 107.497 37.5114 107.497 37.9671ZM106.84 38.2709C106.84 37.8583 106.736 37.5367 106.527 37.3063C106.357 37.1139 106.157 37.0177 105.928 37.0177C105.75 37.0177 105.58 37.0785 105.418 37.2C105.204 37.357 105.097 37.576 105.097 37.857V38.9317C105.097 39.0001 105.195 39.0723 105.391 39.1482C105.602 39.2318 105.831 39.2735 106.079 39.2735C106.586 39.2735 106.84 38.9393 106.84 38.2709Z" fill="#323232"></path><path d="M114.481 39.4975C114.481 39.5811 114.441 39.6203 114.362 39.6152C113.836 39.5773 113.347 39.5773 112.893 39.6152C112.793 39.6228 112.743 39.5785 112.743 39.4823C112.743 39.4064 112.811 39.3659 112.947 39.3608C113.12 39.3507 113.206 39.2127 113.206 38.9468V37.9366C113.206 37.3695 112.972 37.0859 112.503 37.0859C112.256 37.0859 112.029 37.1303 111.823 37.2189C111.635 37.2974 111.54 37.3758 111.537 37.4543L111.522 38.962C111.522 39.119 111.541 39.2228 111.58 39.2734C111.608 39.3089 111.671 39.3342 111.769 39.3494C111.996 39.3874 112.109 39.4342 112.109 39.4899C112.109 39.538 112.103 39.5709 112.09 39.5887C112.074 39.614 112.028 39.6254 111.951 39.6228C111.657 39.6127 111.229 39.6178 110.668 39.638C110.588 39.6405 110.536 39.6342 110.513 39.619C110.49 39.6038 110.479 39.5684 110.479 39.5127C110.479 39.4469 110.552 39.4064 110.699 39.3912C110.858 39.3734 110.938 39.2304 110.938 38.962V37.929C110.938 37.6505 110.874 37.4353 110.745 37.2834C110.632 37.1467 110.488 37.0783 110.312 37.0783C110.055 37.0783 109.823 37.1296 109.617 37.2322C109.411 37.3347 109.308 37.4442 109.308 37.5607V38.9468C109.308 39.1038 109.349 39.2127 109.431 39.2734C109.506 39.3291 109.641 39.3633 109.837 39.376C109.943 39.381 109.996 39.4165 109.996 39.4823C109.996 39.5557 109.953 39.5924 109.868 39.5924C109.224 39.5924 108.758 39.6102 108.469 39.6456C108.371 39.6583 108.308 39.6583 108.28 39.6456C108.257 39.6329 108.245 39.6026 108.245 39.5545C108.245 39.4912 108.341 39.4367 108.531 39.3912C108.647 39.3608 108.705 39.2127 108.705 38.9468V37.7809C108.705 37.4847 108.624 37.3138 108.462 37.2682C108.325 37.2303 108.242 37.2024 108.212 37.1847C108.183 37.167 108.168 37.1378 108.168 37.0973C108.168 37.0518 108.302 36.9555 108.57 36.8087C108.853 36.6517 109.027 36.5732 109.091 36.5732C109.146 36.5732 109.191 36.6498 109.229 36.803C109.266 36.9562 109.295 37.0328 109.316 37.0328C109.344 37.0328 109.422 36.9935 109.551 36.915C109.711 36.8163 109.855 36.7429 109.984 36.6948C110.195 36.6138 110.413 36.5732 110.637 36.5732C110.817 36.5732 110.974 36.6112 111.108 36.6872C111.201 36.7378 111.285 36.8074 111.359 36.8961C111.421 36.972 111.452 37.01 111.452 37.01C111.452 37.01 111.519 36.972 111.653 36.8961C111.81 36.8074 111.963 36.7378 112.113 36.6872C112.332 36.6112 112.544 36.5732 112.75 36.5732C113.456 36.5732 113.809 36.9543 113.809 37.7164V38.9468C113.809 39.0911 113.844 39.1937 113.913 39.2544C113.975 39.3051 114.096 39.3481 114.277 39.3836C114.413 39.4089 114.481 39.4469 114.481 39.4975Z" fill="#323232"></path><path d="M117.745 38.9618C117.745 39.0707 117.596 39.2061 117.297 39.3682C116.957 39.5479 116.608 39.6378 116.25 39.6378C115.861 39.6378 115.534 39.5125 115.269 39.2618C114.985 38.996 114.844 38.6415 114.844 38.1985C114.844 37.6972 115.002 37.2946 115.319 36.9908C115.615 36.7072 115.978 36.5654 116.409 36.5654C116.664 36.5654 116.902 36.6452 117.123 36.8047C117.322 36.9465 117.453 37.1085 117.517 37.2908C117.541 37.3541 117.575 37.3895 117.622 37.3971C117.689 37.4098 117.722 37.4541 117.722 37.5301C117.722 37.6339 117.596 37.7225 117.344 37.7959L115.562 38.3162C115.678 38.9188 115.993 39.2201 116.505 39.2201C116.801 39.2201 117.139 39.1137 117.517 38.901C117.574 38.8681 117.63 38.8517 117.684 38.8517C117.725 38.8517 117.745 38.8884 117.745 38.9618ZM116.83 37.4389C116.83 37.2997 116.772 37.1775 116.658 37.0724C116.543 36.9674 116.402 36.9148 116.235 36.9148C115.761 36.9148 115.524 37.2503 115.524 37.9212V38.0124L116.575 37.701C116.745 37.6529 116.83 37.5655 116.83 37.4389Z" fill="#323232"></path><path d="M122.381 39.5317C122.381 39.6102 122.323 39.6456 122.207 39.638C121.654 39.6102 121.234 39.6051 120.948 39.6228C120.801 39.633 120.721 39.6152 120.708 39.5697C120.703 39.5545 120.7 39.5329 120.7 39.5051C120.7 39.4545 120.775 39.4089 120.925 39.3684C121.061 39.3304 121.129 39.2 121.129 38.9772V37.967C121.129 37.3872 120.873 37.0973 120.36 37.0973C120.131 37.0973 119.919 37.1505 119.723 37.2568C119.537 37.3606 119.445 37.4682 119.445 37.5796V38.9696C119.445 39.2076 119.603 39.3405 119.92 39.3684C120.041 39.3785 120.102 39.4165 120.102 39.4823C120.102 39.5456 120.085 39.5836 120.051 39.5962C120.036 39.6013 119.992 39.6026 119.92 39.6C119.516 39.5849 119.098 39.6051 118.668 39.6608C118.575 39.6735 118.517 39.6773 118.494 39.6722C118.443 39.6621 118.417 39.6228 118.417 39.5545C118.417 39.4937 118.49 39.4418 118.637 39.3988C118.774 39.3583 118.842 39.1899 118.842 38.8937V37.743C118.842 37.548 118.816 37.4239 118.765 37.3708C118.729 37.3328 118.609 37.2796 118.405 37.2113C118.354 37.1935 118.328 37.1581 118.328 37.1049C118.328 37.0543 118.381 37.01 118.487 36.972C118.631 36.9188 118.789 36.834 118.962 36.7176C119.106 36.6214 119.199 36.5732 119.24 36.5732C119.31 36.5732 119.356 36.6511 119.379 36.8068C119.402 36.9625 119.434 37.0404 119.476 37.0404C119.455 37.0404 119.586 36.9663 119.87 36.8182C120.153 36.6701 120.433 36.596 120.708 36.596C121.375 36.596 121.712 36.9695 121.717 37.7164L121.724 38.9392C121.724 39.0962 121.766 39.2089 121.848 39.2772C121.91 39.3279 122.03 39.3709 122.207 39.4064C122.323 39.4291 122.381 39.4709 122.381 39.5317Z" fill="#323232"></path><path d="M124.863 39.2435C124.863 39.365 124.749 39.4688 124.523 39.5549C124.322 39.6309 124.118 39.6688 123.912 39.6688C123.353 39.6688 123.074 39.3764 123.074 38.7916V37.4168C123.074 37.2421 123.06 37.1351 123.031 37.0959C123.003 37.0566 122.909 37.018 122.749 36.98C122.708 36.9699 122.688 36.9307 122.688 36.8623C122.688 36.7889 122.703 36.7446 122.734 36.7294C123.012 36.5952 123.254 36.3547 123.46 36.0078C123.489 35.9597 123.544 35.9445 123.626 35.9622C123.683 35.98 123.713 36.0129 123.715 36.061L123.731 36.5357C123.731 36.5711 123.737 36.5965 123.75 36.6116C123.768 36.6344 123.809 36.6458 123.874 36.6458H124.735C124.784 36.6458 124.784 36.7053 124.735 36.8243C124.676 36.9686 124.589 37.0408 124.473 37.0408H123.889C123.789 37.0408 123.727 37.0573 123.704 37.0902C123.686 37.1129 123.677 37.175 123.677 37.2763V38.5181C123.677 38.8321 123.705 39.0308 123.762 39.1144C123.836 39.2207 124.01 39.2739 124.283 39.2739C124.373 39.2739 124.483 39.2593 124.612 39.2302C124.74 39.2011 124.809 39.1865 124.816 39.1865C124.847 39.1865 124.863 39.2055 124.863 39.2435Z" fill="#323232"></path><path d="M126.617 39.4137C126.617 40.072 126.335 40.567 125.771 40.8987C125.719 40.929 125.682 40.9442 125.659 40.9442C125.623 40.9442 125.589 40.9037 125.558 40.8227C125.548 40.7948 125.543 40.7721 125.543 40.7543C125.543 40.7113 125.616 40.6404 125.763 40.5417C126.016 40.3695 126.142 40.1746 126.142 39.9568C126.142 39.8454 126.068 39.7441 125.922 39.653C125.716 39.5264 125.613 39.3707 125.613 39.1859C125.613 39.0618 125.655 38.9586 125.74 38.8764C125.825 38.7941 125.938 38.7529 126.08 38.7529C126.25 38.7529 126.382 38.8137 126.476 38.9352C126.57 39.0567 126.617 39.2163 126.617 39.4137Z" fill="#323232"></path><path d="M70.9714 45.07C70.9714 45.5105 70.8052 45.8833 70.473 46.1884C70.1407 46.4935 69.7285 46.6461 69.2365 46.6461C68.7445 46.6461 68.3556 46.5119 68.0697 46.2435C67.7941 45.9802 67.6562 45.6321 67.6562 45.1991C67.6562 44.751 67.8301 44.3737 68.1779 44.0674C68.5153 43.7712 68.9184 43.623 69.3872 43.623C69.8895 43.623 70.281 43.756 70.5618 44.0218C70.8349 44.2801 70.9714 44.6295 70.9714 45.07ZM70.2914 45.3016C70.2914 44.9042 70.1935 44.5813 69.9977 44.3332C69.8071 44.0927 69.565 43.9724 69.2713 43.9724C68.9983 43.9724 68.7755 44.0668 68.6029 44.2554C68.4303 44.444 68.344 44.6738 68.344 44.9447C68.344 45.3801 68.4445 45.7194 68.6454 45.9625C68.8308 46.1853 69.073 46.2967 69.3718 46.2967C69.6551 46.2967 69.8792 46.2042 70.0441 46.0194C70.2089 45.8346 70.2914 45.5953 70.2914 45.3016Z" fill="#323232"></path><path d="M75.6742 46.5317C75.6742 46.6102 75.6163 46.6456 75.5004 46.638C74.9465 46.6102 74.5267 46.6051 74.2408 46.6228C74.0939 46.633 74.0141 46.6152 74.0012 46.5697C73.9961 46.5545 73.9935 46.5329 73.9935 46.5051C73.9935 46.4545 74.0682 46.4089 74.2176 46.3684C74.3541 46.3304 74.4223 46.2 74.4223 45.9772V44.967C74.4223 44.3872 74.166 44.0973 73.6534 44.0973C73.4242 44.0973 73.2117 44.1505 73.0159 44.2568C72.8305 44.3606 72.7377 44.4682 72.7377 44.5796V45.9696C72.7377 46.2076 72.8962 46.3405 73.213 46.3684C73.334 46.3785 73.3946 46.4165 73.3946 46.4823C73.3946 46.5456 73.3778 46.5836 73.3443 46.5962C73.3289 46.6013 73.2851 46.6026 73.213 46.6C72.8086 46.5849 72.3913 46.6051 71.9611 46.6608C71.8684 46.6735 71.8104 46.6773 71.7872 46.6722C71.7357 46.6621 71.71 46.6228 71.71 46.5545C71.71 46.4937 71.7834 46.4418 71.9302 46.3988C72.0667 46.3583 72.135 46.1899 72.135 45.8937V44.7429C72.135 44.548 72.1092 44.4239 72.0577 44.3708C72.0216 44.3328 71.9019 44.2796 71.6984 44.2113C71.6469 44.1935 71.6211 44.1581 71.6211 44.1049C71.6211 44.0543 71.6739 44.01 71.7795 43.972C71.9238 43.9188 72.0822 43.834 72.2548 43.7176C72.399 43.6214 72.4917 43.5732 72.533 43.5732C72.6025 43.5732 72.6489 43.6511 72.672 43.8068C72.6952 43.9625 72.7274 44.0404 72.7686 44.0404C72.748 44.0404 72.8794 43.9663 73.1627 43.8182C73.4461 43.6701 73.7256 43.596 74.0012 43.596C74.6683 43.596 75.0045 43.9695 75.0096 44.7164L75.0174 45.9392C75.0174 46.0962 75.0586 46.2089 75.141 46.2772C75.2028 46.3279 75.3226 46.3709 75.5003 46.4064C75.6162 46.4291 75.6742 46.4709 75.6742 46.5317Z" fill="#323232"></path><path d="M78.9056 45.9618C78.9056 46.0707 78.7562 46.2061 78.4574 46.3682C78.1174 46.5479 77.7684 46.6378 77.4103 46.6378C77.0214 46.6378 76.6942 46.5125 76.4289 46.2618C76.1456 45.996 76.0039 45.6415 76.0039 45.1985C76.0039 44.6972 76.1623 44.2946 76.4792 43.9908C76.7754 43.7072 77.1386 43.5654 77.5687 43.5654C77.8237 43.5654 78.062 43.6452 78.2835 43.8047C78.4819 43.9465 78.6132 44.1085 78.6776 44.2908C78.7008 44.3541 78.7356 44.3895 78.782 44.3971C78.8489 44.4098 78.8824 44.4541 78.8824 44.5301C78.8824 44.6339 78.7562 44.7225 78.5038 44.7959L76.7226 45.3162C76.8385 45.9188 77.1527 46.2201 77.6653 46.2201C77.9616 46.2201 78.299 46.1137 78.6776 45.901C78.7343 45.8681 78.7897 45.8517 78.8438 45.8517C78.885 45.8517 78.9056 45.8884 78.9056 45.9618ZM77.9899 44.4389C77.9899 44.2997 77.9326 44.1775 77.818 44.0724C77.7033 43.9674 77.5623 43.9148 77.3949 43.9148C76.9209 43.9148 76.6839 44.2503 76.6839 44.9212V45.0124L77.7349 44.701C77.9049 44.6529 77.9899 44.5655 77.9899 44.4389Z" fill="#323232"></path><path d="M85.0927 46.2279C85.103 46.2506 85.1082 46.2671 85.1082 46.2772C85.1082 46.3304 84.9768 46.4178 84.7141 46.5393C84.4101 46.6785 84.2311 46.7482 84.177 46.7482C84.1306 46.7482 84.0772 46.6716 84.0167 46.5184C83.9561 46.3652 83.9143 46.2886 83.8911 46.2886C83.8936 46.2886 83.7475 46.3551 83.4526 46.488C83.1576 46.6209 82.9342 46.6874 82.7822 46.6874C82.4422 46.6874 82.1472 46.5671 81.8974 46.3266C81.596 46.0405 81.4453 45.6392 81.4453 45.1227C81.4453 44.6898 81.623 44.3163 81.9785 44.0024C82.2928 43.7264 82.6135 43.5884 82.9406 43.5884C83.1724 43.5884 83.4493 43.6176 83.7713 43.6758C83.8718 43.6935 83.922 43.6644 83.922 43.5884V42.2896C83.922 42.1428 83.8859 42.039 83.8138 41.9782C83.7674 41.9377 83.658 41.8896 83.4854 41.8339C83.403 41.8035 83.3617 41.7541 83.3618 41.6858C83.3617 41.6225 83.4171 41.5756 83.5279 41.5452C83.6799 41.4997 83.8615 41.4237 84.0727 41.3174C84.2478 41.2262 84.356 41.1807 84.3972 41.1807C84.4926 41.1807 84.5402 41.2452 84.5402 41.3743C84.5402 41.3718 84.5363 41.4978 84.5286 41.7522C84.5209 42.0067 84.517 42.2542 84.517 42.4947V45.9468C84.517 46.0911 84.5827 46.1633 84.7141 46.1633C84.763 46.1633 84.8287 46.1557 84.9111 46.1405C85.0013 46.1253 85.0618 46.1544 85.0927 46.2279ZM83.8988 45.8519V44.4923C83.8988 44.3809 83.7984 44.2657 83.5974 44.1467C83.3836 44.0201 83.1518 43.9568 82.902 43.9568C82.3636 43.9568 82.0944 44.2834 82.0944 44.9366C82.0944 45.286 82.2013 45.5848 82.4151 45.8329C82.6289 46.081 82.8801 46.2051 83.1686 46.2051C83.2999 46.2051 83.4545 46.162 83.6322 46.076C83.81 45.9899 83.8988 45.9152 83.8988 45.8519Z" fill="#323232"></path><path d="M88.0082 43.9077C88.0082 44.2141 87.918 44.3673 87.7377 44.3673C87.7094 44.3673 87.6154 44.3496 87.4557 44.3141C87.296 44.2787 87.1788 44.2609 87.1041 44.2609C86.8156 44.2609 86.6713 44.4521 86.6713 44.8344V45.9547C86.6713 46.0864 86.7177 46.1801 86.8104 46.2358C86.8645 46.2687 86.9997 46.313 87.2161 46.3687C87.332 46.3965 87.39 46.4396 87.39 46.4978C87.39 46.5662 87.3803 46.6073 87.361 46.6212C87.3417 46.6352 87.2934 46.6383 87.2161 46.6307C86.6494 46.5725 86.2012 46.57 85.8715 46.6232C85.7685 46.6409 85.7028 46.6409 85.6745 46.6232C85.6513 46.608 85.6397 46.5637 85.6397 46.4902C85.6397 46.4219 85.7112 46.3674 85.8541 46.3269C85.9971 46.2864 86.0686 46.1649 86.0686 45.9623V44.7433C86.0686 44.5838 86.0473 44.4762 86.0048 44.4205C85.9623 44.3648 85.8458 44.2901 85.6551 44.1964L85.632 44.185C85.5804 44.1597 85.5547 44.1242 85.5547 44.0787C85.5547 44.028 85.6075 43.985 85.7131 43.9495C85.8908 43.8888 86.0531 43.8027 86.1999 43.6913C86.321 43.5976 86.3983 43.5508 86.4318 43.5508C86.5245 43.5508 86.5799 43.6293 86.5979 43.7862C86.6211 43.9863 86.6481 44.0863 86.6791 44.0863C86.6816 44.0863 86.8259 43.9913 87.1118 43.8014C87.2998 43.6774 87.5059 43.6153 87.73 43.6153C87.9155 43.6153 88.0082 43.7128 88.0082 43.9077Z" fill="#323232"></path><path d="M91.8386 45.07C91.8386 45.5105 91.6724 45.8833 91.3401 46.1884C91.0079 46.4935 90.5957 46.6461 90.1037 46.6461C89.6117 46.6461 89.2228 46.5119 88.9369 46.2435C88.6612 45.9802 88.5234 45.6321 88.5234 45.1991C88.5234 44.751 88.6973 44.3737 89.045 44.0674C89.3825 43.7712 89.7856 43.623 90.2544 43.623C90.7567 43.623 91.1482 43.756 91.429 44.0218C91.702 44.2801 91.8386 44.6295 91.8386 45.07ZM91.1585 45.3016C91.1585 44.9042 91.0607 44.5813 90.8649 44.3332C90.6743 44.0927 90.4321 43.9724 90.1385 43.9724C89.8655 43.9724 89.6426 44.0668 89.4701 44.2554C89.2975 44.444 89.2112 44.6738 89.2112 44.9447C89.2112 45.3801 89.3117 45.7194 89.5126 45.9625C89.698 46.1853 89.9402 46.2967 90.239 46.2967C90.5223 46.2967 90.7464 46.2042 90.9113 46.0194C91.0761 45.8346 91.1585 45.5953 91.1585 45.3016Z" fill="#323232"></path><path d="M95.8756 44.9671C95.8756 45.4406 95.714 45.8425 95.3907 46.1729C95.0674 46.5033 94.6907 46.6685 94.2605 46.6685C94.0004 46.6685 93.7492 46.6229 93.5071 46.5318C93.4813 46.5217 93.4685 46.5837 93.4685 46.7179V47.861C93.4685 48.0458 93.6217 48.1648 93.9282 48.218C94.0699 48.2433 94.1594 48.2667 94.1968 48.2882C94.2341 48.3098 94.2528 48.3458 94.2528 48.3965C94.2528 48.4826 94.1948 48.5218 94.0789 48.5142C93.538 48.4788 93.0628 48.4914 92.6532 48.5522C92.5682 48.5649 92.5154 48.5649 92.4948 48.5522C92.4742 48.5395 92.4639 48.5053 92.4639 48.4497C92.4639 48.4066 92.5373 48.3547 92.6841 48.2939C92.8103 48.2433 92.8734 48.1218 92.8734 47.9294V44.5798C92.8734 44.3088 92.7974 44.1392 92.6455 44.0709C92.4652 43.9924 92.375 43.9278 92.375 43.8772C92.375 43.8215 92.4278 43.7797 92.5334 43.7518C92.6699 43.7189 92.8103 43.6607 92.9546 43.5771C93.0756 43.5088 93.149 43.4746 93.1748 43.4746C93.2521 43.4746 93.3152 43.5442 93.3641 43.6835C93.4363 43.886 93.4839 43.9873 93.5071 43.9873C93.5122 43.9873 93.623 43.9278 93.8394 43.8088C94.0764 43.6797 94.3082 43.6151 94.5349 43.6151C94.9032 43.6151 95.2072 43.7177 95.4467 43.9227C95.7326 44.1633 95.8756 44.5114 95.8756 44.9671ZM95.2188 45.2709C95.2187 44.8583 95.1144 44.5367 94.9058 44.3063C94.7358 44.1139 94.5361 44.0177 94.3069 44.0177C94.1292 44.0177 93.9592 44.0785 93.7969 44.2C93.5831 44.357 93.4762 44.576 93.4762 44.857V45.9317C93.4762 46.0001 93.5741 46.0723 93.7698 46.1482C93.981 46.2318 94.2103 46.2735 94.4576 46.2735C94.965 46.2735 95.2187 45.9393 95.2188 45.2709Z" fill="#323232"></path><path d="M101.6 46.2357C101.6 46.2888 101.501 46.3692 101.304 46.4768C101.107 46.5844 100.949 46.6382 100.831 46.6382C100.731 46.6382 100.642 46.5901 100.564 46.4939C100.487 46.3977 100.433 46.3496 100.402 46.3496C100.379 46.3496 100.257 46.4015 100.035 46.5053C99.8135 46.6091 99.5907 46.661 99.3666 46.661C99.1554 46.661 98.979 46.6003 98.8373 46.4787C98.6827 46.3445 98.6055 46.1623 98.6055 45.9319C98.6055 45.4939 99.1155 45.1799 100.136 44.99C100.311 44.9571 100.4 44.8875 100.402 44.7811L100.41 44.5381C100.425 44.1229 100.239 43.9153 99.8496 43.9153C99.7388 43.9153 99.6339 44.0127 99.5347 44.2077C99.4355 44.4026 99.2932 44.5077 99.1078 44.5229C98.8965 44.5431 98.7909 44.4558 98.7909 44.2609C98.7909 44.1393 98.948 43.9975 99.2623 43.8355C99.592 43.6659 99.9088 43.5811 100.213 43.5811C100.736 43.5811 100.995 43.8254 100.989 44.314L100.974 45.8787C100.971 46.0433 101.042 46.1255 101.186 46.1255C101.215 46.1255 101.269 46.1192 101.349 46.1065C101.429 46.0939 101.475 46.0876 101.488 46.0875C101.563 46.0875 101.6 46.1369 101.6 46.2357ZM100.41 45.3698C100.412 45.3065 100.398 45.2647 100.365 45.2445C100.333 45.2242 100.282 45.2204 100.213 45.2331C99.592 45.3419 99.2816 45.5407 99.2816 45.8293C99.2816 46.1205 99.4426 46.2661 99.7646 46.2661C99.8934 46.2661 100.026 46.242 100.163 46.1939C100.322 46.1382 100.402 46.0711 100.402 45.9926L100.41 45.3698Z" fill="#323232"></path><path d="M104.199 46.2435C104.199 46.365 104.085 46.4688 103.859 46.5549C103.658 46.6309 103.454 46.6688 103.248 46.6688C102.689 46.6688 102.41 46.3764 102.41 45.7916V44.4168C102.41 44.2421 102.396 44.1351 102.367 44.0959C102.339 44.0566 102.245 44.018 102.085 43.98C102.044 43.9699 102.023 43.9307 102.023 43.8623C102.023 43.7889 102.039 43.7446 102.07 43.7294C102.348 43.5952 102.59 43.3547 102.796 43.0078C102.825 42.9597 102.88 42.9445 102.962 42.9622C103.019 42.98 103.049 43.0129 103.051 43.061L103.067 43.5357C103.067 43.5711 103.073 43.5965 103.086 43.6116C103.104 43.6344 103.145 43.6458 103.21 43.6458H104.071C104.12 43.6458 104.12 43.7053 104.071 43.8243C104.012 43.9686 103.924 44.0408 103.809 44.0408H103.225C103.125 44.0408 103.063 44.0573 103.04 44.0902C103.022 44.1129 103.013 44.175 103.013 44.2763V45.5181C103.013 45.8321 103.041 46.0308 103.098 46.1144C103.172 46.2207 103.346 46.2739 103.619 46.2739C103.709 46.2739 103.819 46.2593 103.948 46.2302C104.076 46.2011 104.145 46.1865 104.152 46.1865C104.183 46.1865 104.199 46.2055 104.199 46.2435Z" fill="#323232"></path><path d="M109.791 46.2357C109.791 46.2888 109.693 46.3692 109.496 46.4768C109.299 46.5844 109.141 46.6382 109.022 46.6382C108.922 46.6382 108.833 46.5901 108.756 46.4939C108.679 46.3977 108.624 46.3496 108.594 46.3496C108.57 46.3496 108.448 46.4015 108.226 46.5053C108.005 46.6091 107.782 46.661 107.558 46.661C107.347 46.661 107.17 46.6003 107.029 46.4787C106.874 46.3445 106.797 46.1623 106.797 45.9319C106.797 45.4939 107.307 45.1799 108.327 44.99C108.502 44.9571 108.591 44.8875 108.594 44.7811L108.601 44.5381C108.617 44.1229 108.43 43.9153 108.041 43.9153C107.93 43.9153 107.825 44.0127 107.726 44.2077C107.627 44.4026 107.485 44.5077 107.299 44.5229C107.088 44.5431 106.982 44.4558 106.982 44.2609C106.982 44.1393 107.139 43.9975 107.454 43.8355C107.783 43.6659 108.1 43.5811 108.404 43.5811C108.927 43.5811 109.186 43.8254 109.181 44.314L109.165 45.8787C109.163 46.0433 109.234 46.1255 109.378 46.1255C109.406 46.1255 109.46 46.1192 109.54 46.1065C109.62 46.0939 109.666 46.0876 109.679 46.0875C109.754 46.0875 109.791 46.1369 109.791 46.2357ZM108.601 45.3698C108.604 45.3065 108.589 45.2647 108.557 45.2445C108.525 45.2242 108.474 45.2204 108.404 45.2331C107.783 45.3419 107.473 45.5407 107.473 45.8293C107.473 46.1205 107.634 46.2661 107.956 46.2661C108.085 46.2661 108.217 46.242 108.354 46.1939C108.514 46.1382 108.594 46.0711 108.594 45.9926L108.601 45.3698Z" fill="#323232"></path><path d="M114.351 46.2435C114.351 46.365 114.238 46.4688 114.011 46.5549C113.81 46.6309 113.607 46.6688 113.401 46.6688C112.842 46.6688 112.562 46.3764 112.562 45.7916V44.4168C112.562 44.2421 112.548 44.1351 112.52 44.0959C112.491 44.0566 112.397 44.018 112.238 43.98C112.196 43.9699 112.176 43.9307 112.176 43.8623C112.176 43.7889 112.191 43.7446 112.222 43.7294C112.5 43.5952 112.742 43.3547 112.949 43.0078C112.977 42.9597 113.032 42.9445 113.115 42.9622C113.171 42.98 113.201 43.0129 113.204 43.061L113.219 43.5357C113.219 43.5711 113.225 43.5965 113.238 43.6116C113.256 43.6344 113.298 43.6458 113.362 43.6458H114.224C114.273 43.6458 114.273 43.7053 114.224 43.8243C114.164 43.9686 114.077 44.0408 113.961 44.0408H113.377C113.277 44.0408 113.215 44.0573 113.192 44.0902C113.174 44.1129 113.165 44.175 113.165 44.2763V45.5181C113.165 45.8321 113.193 46.0308 113.25 46.1144C113.325 46.2207 113.499 46.2739 113.772 46.2739C113.862 46.2739 113.971 46.2593 114.1 46.2302C114.229 46.2011 114.297 46.1865 114.305 46.1865C114.336 46.1865 114.351 46.2055 114.351 46.2435Z" fill="#323232"></path><path d="M116.286 42.2064C116.286 42.3228 116.242 42.4311 116.153 42.5311C116.064 42.6311 115.967 42.6811 115.861 42.6811C115.74 42.6811 115.641 42.6457 115.564 42.5748C115.487 42.5039 115.448 42.4115 115.448 42.2975C115.448 42.1861 115.495 42.0823 115.589 41.9861C115.683 41.8899 115.784 41.8418 115.892 41.8418C116.155 41.8418 116.286 41.9633 116.286 42.2064ZM116.715 46.5054C116.702 46.5788 116.671 46.6206 116.622 46.6308C116.61 46.6333 116.548 46.6308 116.437 46.6232C116.053 46.5979 115.676 46.6029 115.305 46.6384C115.204 46.6485 115.141 46.6447 115.116 46.627C115.09 46.6093 115.077 46.5687 115.077 46.5054C115.077 46.4472 115.145 46.3991 115.282 46.3611C115.431 46.3181 115.506 46.1776 115.506 45.9396V44.9446C115.506 44.7446 115.485 44.604 115.444 44.523C115.387 44.4116 115.27 44.3268 115.092 44.2686C115.013 44.2407 114.973 44.199 114.973 44.1433C114.973 44.0698 115.031 44.0154 115.147 43.9799C115.363 43.9141 115.555 43.8268 115.722 43.7179C115.856 43.6268 115.939 43.5812 115.97 43.5812C116.073 43.5812 116.123 43.647 116.12 43.7787C116.11 44.442 116.105 45.118 116.105 45.8067C116.105 45.9712 116.129 46.089 116.178 46.1599C116.232 46.2383 116.335 46.294 116.487 46.327C116.655 46.3649 116.731 46.4244 116.715 46.5054Z" fill="#323232"></path><path d="M123.52 46.4975C123.52 46.5811 123.481 46.6203 123.401 46.6152C122.875 46.5773 122.386 46.5773 121.932 46.6152C121.832 46.6229 121.782 46.5785 121.782 46.4823C121.782 46.4064 121.85 46.3659 121.987 46.3608C122.159 46.3507 122.245 46.2127 122.245 45.9468V44.9366C122.245 44.3695 122.011 44.0859 121.542 44.0859C121.295 44.0859 121.068 44.1303 120.862 44.2189C120.674 44.2974 120.579 44.3758 120.576 44.4543L120.561 45.962C120.561 46.119 120.58 46.2228 120.619 46.2734C120.647 46.3089 120.71 46.3342 120.808 46.3494C121.035 46.3874 121.148 46.4342 121.148 46.4899C121.148 46.538 121.142 46.5709 121.129 46.5887C121.113 46.614 121.067 46.6254 120.99 46.6228C120.696 46.6127 120.268 46.6178 119.707 46.638C119.627 46.6405 119.576 46.6342 119.552 46.619C119.529 46.6038 119.518 46.5684 119.518 46.5127C119.518 46.4469 119.591 46.4064 119.738 46.3912C119.898 46.3734 119.977 46.2304 119.977 45.962V44.929C119.977 44.6505 119.913 44.4353 119.784 44.2834C119.671 44.1467 119.527 44.0783 119.351 44.0783C119.094 44.0783 118.862 44.1296 118.656 44.2322C118.45 44.3347 118.347 44.4442 118.347 44.5607V45.9468C118.347 46.1038 118.388 46.2127 118.47 46.2734C118.545 46.3291 118.68 46.3633 118.876 46.376C118.982 46.381 119.035 46.4165 119.035 46.4823C119.035 46.5557 118.992 46.5924 118.907 46.5924C118.263 46.5924 117.797 46.6102 117.508 46.6456C117.411 46.6583 117.347 46.6583 117.319 46.6456C117.296 46.6329 117.284 46.6026 117.284 46.5545C117.284 46.4912 117.38 46.4367 117.57 46.3912C117.686 46.3608 117.744 46.2127 117.744 45.9468V44.7809C117.744 44.4847 117.663 44.3138 117.501 44.2682C117.364 44.2303 117.281 44.2024 117.251 44.1847C117.222 44.167 117.207 44.1378 117.207 44.0973C117.207 44.0518 117.341 43.9555 117.609 43.8087C117.892 43.6517 118.066 43.5732 118.13 43.5732C118.185 43.5732 118.23 43.6498 118.268 43.803C118.305 43.9562 118.334 44.0328 118.355 44.0328C118.383 44.0328 118.461 43.9935 118.59 43.915C118.75 43.8163 118.894 43.7429 119.023 43.6948C119.234 43.6138 119.452 43.5732 119.676 43.5732C119.856 43.5732 120.013 43.6112 120.147 43.6872C120.24 43.7378 120.324 43.8074 120.399 43.8961C120.46 43.972 120.491 44.01 120.491 44.01C120.491 44.01 120.558 43.972 120.692 43.8961C120.849 43.8074 121.003 43.7378 121.152 43.6872C121.371 43.6112 121.583 43.5732 121.789 43.5732C122.495 43.5732 122.848 43.9543 122.848 44.7164V45.9468C122.848 46.0911 122.883 46.1937 122.952 46.2544C123.014 46.3051 123.135 46.3481 123.316 46.3836C123.452 46.4089 123.52 46.4469 123.52 46.4975Z" fill="#323232"></path><path d="M126.785 45.9618C126.785 46.0707 126.635 46.2061 126.336 46.3682C125.996 46.5479 125.647 46.6378 125.289 46.6378C124.9 46.6378 124.573 46.5125 124.308 46.2618C124.024 45.996 123.883 45.6415 123.883 45.1985C123.883 44.6972 124.041 44.2946 124.358 43.9908C124.654 43.7072 125.017 43.5654 125.448 43.5654C125.703 43.5654 125.941 43.6452 126.162 43.8047C126.361 43.9465 126.492 44.1085 126.557 44.2908C126.58 44.3541 126.615 44.3895 126.661 44.3971C126.728 44.4098 126.761 44.4541 126.761 44.5301C126.761 44.6339 126.635 44.7225 126.383 44.7959L124.601 45.3162C124.717 45.9188 125.032 46.2201 125.544 46.2201C125.84 46.2201 126.178 46.1137 126.557 45.901C126.613 45.8681 126.669 45.8517 126.723 45.8517C126.764 45.8517 126.785 45.8884 126.785 45.9618ZM125.869 44.4389C125.869 44.2997 125.811 44.1775 125.697 44.0724C125.582 43.9674 125.441 43.9148 125.274 43.9148C124.8 43.9148 124.563 44.2503 124.563 44.9212V45.0124L125.614 44.701C125.784 44.6529 125.869 44.5655 125.869 44.4389Z" fill="#323232"></path></svg> 