<?xml version="1.0" encoding="UTF-8"?> <svg xmlns="http://www.w3.org/2000/svg" id="Warstwa_1" data-name="Warstwa 1" viewBox="0 0 100 100"><defs><style> .cls-1 { stroke-miterlimit: 10; } .cls-1, .cls-2, .cls-3 { fill: none; stroke: #fff; stroke-width: 2px; } .cls-2, .cls-3 { stroke-linejoin: round; } .cls-3 { stroke-linecap: round; } </style></defs><path class="cls-3" d="M43.48,73.58c2.08,1.23,4.33,2.17,6.73,2.78l1.56,9.18h9.8l1.57-9.18c2.42-.61,4.69-1.57,6.77-2.81l7.58,5.42,6.93-6.9-5.44-7.54c1.24-2.08,2.2-4.34,2.82-6.74l9.22-1.57v-9.76l-9.22-1.57c-.62-2.4-1.57-4.67-2.82-6.74l5.44-7.54-6.93-6.9-7.58,5.42c-2.11-1.25-4.4-2.19-6.84-2.82l-1.52-9.16h-9.8l-.62,4.4"></path><path class="cls-3" d="M48.29,54.29c-.33-.93-.51-1.92-.51-2.96,0-4.9,3.99-8.86,8.9-8.86s8.9,3.98,8.9,8.86-3.99,8.87-8.9,8.87c-1.56,0-3.02-.39-4.29-1.09"></path><path class="cls-1" d="M33.73,14.61c0,4.07-3.31,7.37-7.38,7.37s-7.4-3.3-7.4-7.37,3.31-7.37,7.4-7.37,7.38,3.3,7.38,7.37Z"></path><path class="cls-1" d="M26.35,63.1v29.66"></path><path class="cls-1" d="M16.59,41.53v51.23"></path><path class="cls-2" d="M36.09,92.76v-55.22h9.96c5.39,0,9.8-3.16,9.8-8.54v-.25H18.79c-5.4,0-9.8,4.4-9.8,9.76v16.59c0,5.37,2.16,9.76,7.56,9.76"></path></svg> 