<?xml version="1.0" encoding="UTF-8"?> <svg xmlns="http://www.w3.org/2000/svg" id="Warstwa_1" data-name="Warstwa 1" viewBox="0 0 100 100"><defs><style> .cls-1 { stroke-miterlimit: 10; } .cls-1, .cls-2 { fill: none; stroke: #fff; stroke-width: 2px; } .cls-2 { stroke-linejoin: round; } </style></defs><path class="cls-2" d="M38.11,63.01v-4.03c0-4.31,2.95-6.82,6.97-6.82l4.93,5.42,4.57-5.42c4,0,7.31,2.52,7.31,6.82v4.03"></path><path class="cls-1" d="M55.86,41.64c0,3.28-2.63,5.97-5.87,5.97s-5.87-2.69-5.87-5.97v-1.4c0-3.28,2.63-5.97,5.87-5.97s5.87,2.69,5.87,5.97v1.4Z"></path><path class="cls-1" d="M60.51,16.46l13.19,7.63"></path><path class="cls-1" d="M39.45,16.46l-13.17,7.63"></path><path class="cls-1" d="M60.51,83.54l13.19-7.63"></path><path class="cls-1" d="M39.45,83.54l-13.17-7.63"></path><path class="cls-2" d="M55.83,10.29c0,3.23-2.61,5.84-5.84,5.84s-5.84-2.61-5.84-5.84,2.61-5.84,5.84-5.84,5.84,2.61,5.84,5.84Z"></path><path class="cls-2" d="M49.99,16.78v8.92"></path><path class="cls-2" d="M44.15,89.71c0-3.23,2.61-5.84,5.84-5.84s5.84,2.61,5.84,5.84-2.61,5.84-5.84,5.84-5.84-2.61-5.84-5.84Z"></path><path class="cls-2" d="M49.99,83.22v-8.92"></path><path class="cls-2" d="M87.26,35.13c-2.79,1.62-6.36.67-7.98-2.12s-.66-6.36,2.12-7.98c2.79-1.62,6.36-.67,7.98,2.12,1.62,2.79.66,6.36-2.12,7.97h0Z"></path><path class="cls-2" d="M78.72,33.34l-7.71,4.47"></path><path class="cls-2" d="M12.73,35.13c2.79,1.62,6.36.67,7.98-2.12,1.62-2.79.66-6.36-2.12-7.98-2.79-1.62-6.36-.67-7.97,2.12-1.62,2.79-.67,6.36,2.12,7.97h-.01Z"></path><path class="cls-2" d="M21.26,33.34l7.71,4.47"></path><path class="cls-2" d="M12.73,64.87c2.79-1.62,6.36-.67,7.98,2.12,1.62,2.79.66,6.36-2.12,7.97-2.79,1.62-6.36.67-7.97-2.12-1.62-2.79-.67-6.36,2.12-7.98h-.01Z"></path><path class="cls-2" d="M21.26,66.67l7.71-4.48"></path><path class="cls-2" d="M87.26,64.87c-2.79-1.62-6.36-.67-7.98,2.12-1.62,2.79-.66,6.36,2.12,7.97,2.79,1.62,6.36.67,7.97-2.12,1.62-2.79.67-6.36-2.12-7.98h.01Z"></path><path class="cls-2" d="M78.72,66.67l-7.71-4.48"></path><path class="cls-2" d="M74.1,50c0,13.32-10.8,24.11-24.11,24.11s-24.11-10.79-24.11-24.11,10.79-24.11,24.11-24.11,24.11,10.79,24.11,24.11Z"></path><path class="cls-1" d="M15.72,42.38v15.24"></path><path class="cls-1" d="M84.26,42.38v15.24"></path></svg> 