<?xml version="1.0" encoding="UTF-8"?> <svg xmlns="http://www.w3.org/2000/svg" id="Warstwa_1" data-name="Warstwa 1" viewBox="0 0 100 100"><defs><style> .cls-1, .cls-2 { fill: none; stroke: #fff; stroke-miterlimit: 10; stroke-width: 2px; } .cls-2 { stroke-linecap: round; } </style></defs><path class="cls-1" d="M57.41,71.02c0-4.06-3.29-7.36-7.36-7.36-4.07,0-7.37,3.28-7.38,7.35,0,4.06,3.29,7.36,7.36,7.36s7.37-3.28,7.38-7.35Z"></path><path class="cls-1" d="M25.55,71.85c3.62,0,6.55-2.93,6.55-6.54s-2.93-6.54-6.55-6.54-6.55,2.93-6.55,6.54,2.93,6.54,6.55,6.54Z"></path><path class="cls-1" d="M11.8,88.93v-1.35c0-6.39,5.17-10.19,11.55-10.19h4.41c3.75,0,7.09,1.32,9.2,3.7"></path><path class="cls-1" d="M74.55,71.85c3.62,0,6.55-2.93,6.55-6.54s-2.93-6.54-6.55-6.54-6.55,2.93-6.55,6.54,2.93,6.54,6.55,6.54Z"></path><path class="cls-1" d="M63.14,81.09c2.11-2.38,5.44-3.7,9.2-3.7h4.41c6.38,0,11.55,3.8,11.55,10.19v1.35"></path><path class="cls-1" d="M34.58,96.87v-1.52c0-7.18,5.81-11.45,12.99-11.45h4.95c7.17,0,12.99,4.27,12.99,11.45v1.52"></path><path class="cls-1" d="M50.05,10.57V3.13"></path><path class="cls-1" d="M36.16,16.42l-5.33-5.33"></path><path class="cls-1" d="M30.62,30.29h-7.76"></path><path class="cls-1" d="M36.47,43.87l-5.64,5.64"></path><path class="cls-1" d="M69.27,49.51l-5.65-5.64"></path><path class="cls-1" d="M77.23,30.3h-7.76"></path><path class="cls-1" d="M69.27,11.09l-5.33,5.33"></path><path class="cls-2" d="M51.51,23.07c2.74.71,4.89,2.92,5.51,5.69"></path><path class="cls-1" d="M45.72,51.49c-1.12,0-2.03-.91-2.03-2.03v-4.61c0-2.01-.85-3.93-2.34-5.28-2.62-2.37-4.26-5.79-4.26-9.6,0-7.15,5.8-12.95,12.96-12.95s12.96,5.8,12.96,12.95c0,3.81-1.64,7.23-4.26,9.6-1.49,1.35-2.34,3.27-2.34,5.28v4.61c0,1.12-.91,2.03-2.03,2.03h-8.66Z"></path><path class="cls-1" d="M53.09,51.52v1.31c0,1.68-1.36,3.04-3.04,3.04s-3.04-1.36-3.04-3.04v-1.31"></path><path class="cls-1" d="M42.91,41.61h5.74"></path><path class="cls-1" d="M51.46,41.61h5.74"></path><path class="cls-1" d="M56.4,46.54h-12.71"></path></svg> 