<?xml version="1.0" encoding="UTF-8"?> <svg xmlns="http://www.w3.org/2000/svg" id="Warstwa_1" data-name="Warstwa 1" viewBox="0 0 100 100"><defs><style> .cls-1 { fill: none; stroke: #fff; stroke-linecap: round; stroke-linejoin: round; stroke-width: 2px; } </style></defs><path class="cls-1" d="M68.59,92.7l-23.49-5.62c-2.26-.55-3.66-2.84-3.11-5.09l.15-.63c.55-2.25,2.87-3.64,5.13-3.09l10.65,2.53-5.29-8.56-10.9-17.65c-1.22-1.98-.44-4.68,1.55-5.89,1.99-1.21,4.76-.67,5.99,1.3l8.32,13.49,15.27-6.16s5.08-1.85,8.71,4.03l8.85,17.26M50.77,42.67V10.64c0-1.84-1.52-3.34-3.37-3.34H12.95c-1.85,0-3.37,1.51-3.37,3.34v67.15c0,1.84,1.52,3.34,3.37,3.34h22.95M27.38,73.73h5.6M9.57,66.64h32.23M26.46,27.14l-9.08.95,6.78,6.07-1.89,8.86,7.91-4.52,7.91,4.52-1.89-8.86,6.78-6.07-9.08-.95-3.72-8.28-3.72,8.28h0Z"></path></svg> 