<?xml version="1.0" encoding="UTF-8"?> <svg xmlns="http://www.w3.org/2000/svg" width="52" height="52" viewBox="0 0 52 52" fill="none"><g clip-path="url(#clip0_165_1801)"><path d="M25.6389 0.944606C23.548 0.954283 21.5516 1.13187 19.796 1.44162C14.619 2.3525 13.6794 4.25832 13.6794 7.77465V12.4177H25.908V13.965H13.6794H9.09083C5.53674 13.965 2.42235 16.093 1.45082 20.1391C0.327846 24.7775 0.278129 27.676 1.45082 32.5189C2.32018 36.1252 4.39644 38.693 7.95053 38.693H12.1555V33.1277C12.1555 29.1071 15.648 25.559 19.7955 25.559H32.0104C35.4108 25.559 38.127 22.7704 38.127 19.3713V7.77284C38.127 4.47184 35.331 1.99406 32.0104 1.4398C29.9095 1.09148 27.7297 0.933249 25.6384 0.942789L25.6389 0.944606ZM19.0251 4.67855C20.2886 4.67855 21.3199 5.72301 21.3199 7.00688C21.3199 8.28621 20.2881 9.32112 19.0251 9.32112C17.7576 9.32112 16.7304 8.28666 16.7304 7.00688C16.7304 5.72301 17.7576 4.67855 19.0251 4.67855Z" fill="url(#paint0_linear_165_1801)"></path><path d="M39.6512 13.9609V19.3717C39.6512 23.5654 36.0816 27.0949 32.0112 27.0949H19.7963C16.4502 27.0949 13.6797 29.9471 13.6797 33.2826V44.8811C13.6797 48.1821 16.5619 50.1238 19.7963 51.0687C23.6674 52.2027 27.3815 52.4076 32.0112 51.0687C35.09 50.181 38.1277 48.3938 38.1277 44.8811V40.238H25.9128V38.6907H38.1277H44.2443C47.7984 38.6907 49.1248 36.2215 50.3609 32.5166C51.6376 28.7009 51.5833 25.0297 50.3609 20.1368C49.4824 16.6127 47.8048 13.9628 44.2443 13.9628H39.6557L39.6512 13.9609ZM32.782 43.3364C34.0496 43.3364 35.0768 44.3709 35.0768 45.6507C35.0767 46.9345 34.0496 47.979 32.782 47.979C31.5186 47.979 30.4873 46.9345 30.4873 45.6507C30.4873 44.3713 31.519 43.3364 32.782 43.3364Z" fill="url(#paint1_linear_165_1801)"></path></g><defs><linearGradient id="paint0_linear_165_1801" x1="0.589032" y1="0.943607" x2="28.7044" y2="24.9886" gradientUnits="userSpaceOnUse"><stop stop-color="#5A9FD4"></stop><stop offset="1" stop-color="#306998"></stop></linearGradient><linearGradient id="paint1_linear_165_1801" x1="32.4935" y1="45.2755" x2="22.4106" y2="31.1118" gradientUnits="userSpaceOnUse"><stop stop-color="#FFD43B"></stop><stop offset="1" stop-color="#FFE873"></stop></linearGradient><clipPath id="clip0_165_1801"><rect width="52" height="52" fill="white"></rect></clipPath></defs></svg> 