<?xml version="1.0" encoding="UTF-8"?> <svg xmlns="http://www.w3.org/2000/svg" width="56" height="50" viewBox="0 0 56 50" fill="none"><g clip-path="url(#clip0_165_1816)"><path d="M27.9991 30.0091C30.7557 30.0091 32.9904 27.7665 32.9904 25.0001C32.9904 22.2338 30.7557 19.9912 27.9991 19.9912C25.2425 19.9912 23.0078 22.2338 23.0078 25.0001C23.0078 27.7665 25.2425 30.0091 27.9991 30.0091Z" fill="#61DAFB"></path><path d="M28.0014 35.2626C42.793 35.2626 54.784 30.6681 54.784 25.0005C54.784 19.3328 42.793 14.7383 28.0014 14.7383C13.2097 14.7383 1.21875 19.3328 1.21875 25.0005C1.21875 30.6681 13.2097 35.2626 28.0014 35.2626Z" stroke="#61DAFB"></path><path d="M19.144 30.1312C26.5399 42.9864 36.5003 51.1103 41.3914 48.2764C46.2825 45.4426 44.252 32.7242 36.8561 19.8691C29.4603 7.01392 19.4999 -1.10996 14.6088 1.72387C9.71773 4.55769 11.7482 17.2761 19.144 30.1312Z" stroke="#61DAFB"></path><path d="M19.1466 19.8696C11.7508 32.7247 9.72028 45.4431 14.6113 48.277C19.5024 51.1108 29.4629 42.9869 36.8587 30.1318C44.2545 17.2766 46.285 4.5582 41.3939 1.72438C36.5029 -1.10945 26.5424 7.01444 19.1466 19.8696Z" stroke="#61DAFB"></path></g><defs><clipPath id="clip0_165_1816"><rect width="56" height="50" fill="white"></rect></clipPath></defs></svg> 